<?xml version="1.0" standalone="no"?>
<!DOCTYPE svg PUBLIC "-//W3C//DTD SVG 20010904//EN"
 "http://www.w3.org/TR/2001/REC-SVG-20010904/DTD/svg10.dtd">
<svg version="1.0" xmlns="http://www.w3.org/2000/svg"
 width="1280.000000pt" height="1280.000000pt" viewBox="0 0 1280.000000 1280.000000"
 preserveAspectRatio="xMidYMid meet">
<metadata>
Created by potrace 1.15, written by Peter Selinger 2001-2017
</metadata>
<g transform="translate(0.000000,1280.000000) scale(0.100000,-0.100000)"
fill="#006400" stroke="none">
<path d="M6455 12120 c-331 -6 -533 -22 -630 -50 -28 -8 -26 -8 17 -9 83 -2
60 -18 -35 -25 -387 -29 -364 -25 -647 -104 l-135 -37 165 -5 165 -6 -188 -2
-188 -2 -137 -45 c-75 -25 -175 -61 -222 -80 l-85 -34 50 -2 c28 -1 95 -5 150
-9 93 -6 88 -7 -77 -8 -163 -2 -219 -10 -238 -33 -3 -3 -16 -9 -30 -12 -14 -4
-59 -22 -100 -42 l-75 -35 60 4 c106 9 610 19 604 12 -18 -18 -242 -36 -468
-36 l-244 0 -121 -64 c-161 -84 -276 -149 -276 -157 0 -4 63 -5 141 -3 96 3
139 1 134 -6 -4 -6 -66 -10 -164 -10 l-158 0 -109 -72 c-60 -40 -110 -81 -112
-90 -2 -12 7 -22 30 -31 32 -13 31 -13 -60 -25 -77 -9 -99 -16 -139 -44 l-48
-33 315 -5 c292 -5 319 -7 370 -27 l55 -22 -406 0 -406 -1 -54 -42 -53 -43
304 -5 c168 -3 262 -7 210 -9 -52 -1 -202 -8 -332 -14 -207 -11 -240 -14 -255
-30 -19 -20 -30 -20 337 -2 75 3 78 3 30 -5 -30 -5 -138 -16 -240 -25 l-184
-17 -47 -39 c-90 -75 -122 -69 367 -71 242 -1 421 -3 399 -5 -22 -2 -111 -13
-198 -23 -121 -16 -219 -20 -430 -20 l-273 0 -34 -35 -33 -34 69 -3 69 -3 -83
-9 c-56 -6 -90 -15 -107 -28 -14 -11 -25 -22 -25 -26 0 -4 156 -6 347 -4 335
3 351 2 431 -20 45 -12 82 -26 82 -30 0 -4 -206 -7 -457 -8 l-458 0 -63 -63
-63 -62 53 -6 53 -6 -60 -1 c-60 -2 -60 -3 -109 -58 -26 -30 -46 -57 -44 -59
2 -2 46 3 98 11 52 8 167 17 255 19 194 5 133 -6 -170 -30 -159 -12 -203 -19
-218 -33 -24 -21 -197 -238 -197 -246 0 -3 33 -7 73 -8 l72 -2 -84 -5 c-73 -5
-86 -9 -99 -29 l-16 -24 130 7 c71 3 148 8 172 11 23 3 42 2 42 -3 0 -8 -180
-36 -316 -50 l-62 -6 -61 -88 c-34 -48 -61 -90 -61 -93 0 -4 201 -7 448 -8
l447 -1 -459 -11 -459 -11 -55 -85 c-30 -47 -90 -146 -133 -220 l-77 -135 66
-6 c65 -5 66 -6 15 -7 -63 -2 -98 -15 -107 -38 -6 -15 2 -16 96 -11 l103 6
-70 -14 c-38 -8 -86 -14 -107 -14 -32 -1 -39 -6 -61 -46 -14 -25 -22 -45 -17
-45 5 0 10 5 12 12 3 7 31 -9 69 -38 60 -47 66 -50 104 -43 22 4 189 7 370 7
349 -1 319 -5 -169 -23 -218 -8 -219 -8 -196 -27 22 -18 39 -19 192 -17 92 2
170 0 174 -4 4 -4 -33 -8 -82 -8 -49 -1 -120 -4 -159 -8 l-70 -6 39 -30 39
-30 361 2 c210 1 351 -1 336 -6 -14 -5 -171 -10 -350 -10 l-325 -2 24 -20 c22
-18 38 -20 175 -19 83 1 156 0 161 -1 26 -4 -138 -28 -200 -29 l-70 -1 26 -20
c24 -19 41 -20 300 -21 l274 -1 -165 -12 c-91 -7 -205 -14 -255 -14 l-90 -2
30 -24 c24 -20 42 -25 90 -26 33 -1 51 -3 40 -6 -11 -2 -31 -6 -45 -9 l-25 -6
24 -19 c15 -12 32 -17 45 -14 17 5 18 4 6 -5 -13 -9 -12 -12 5 -26 22 -16 47
-16 335 12 161 15 1088 26 1053 12 -10 -4 -124 -19 -253 -34 -209 -24 -280
-27 -644 -30 -225 -2 -411 -6 -414 -9 -3 -3 3 -12 14 -19 15 -12 60 -14 239
-10 121 2 216 2 210 0 -5 -3 -77 -17 -160 -31 -82 -14 -158 -29 -168 -33 -20
-8 -7 -19 189 -167 l80 -61 140 16 c76 10 303 35 503 56 l364 39 23 37 c29 46
29 46 2 51 -20 4 -20 4 4 6 28 1 83 61 57 61 -7 0 -100 -7 -207 -16 -106 -8
-205 -14 -220 -12 -34 4 243 38 364 45 76 5 93 9 103 25 7 11 11 22 8 24 -2 2
-48 0 -103 -6 -77 -8 -330 -5 -341 4 -2 1 106 15 240 30 224 25 244 29 267 52
l25 24 -410 1 c-235 1 -387 5 -355 9 30 5 216 8 412 9 357 1 357 1 378 24 l21
22 -53 6 -53 6 56 1 c44 2 60 7 77 25 29 30 28 37 -5 38 -23 1 -21 3 14 12 31
9 56 28 98 75 31 34 53 62 48 62 -4 0 -62 -7 -128 -15 -90 -11 -219 -15 -520
-14 -253 1 -385 5 -360 10 123 27 339 52 560 65 138 8 312 18 388 23 l138 8
35 34 c35 34 35 34 12 41 -20 5 -18 6 10 7 22 1 44 12 70 36 l37 34 -115 1
c-74 1 -108 4 -95 10 11 5 67 9 125 9 l105 1 82 68 82 67 -47 6 -47 6 56 1
c51 2 63 7 130 56 85 63 354 228 448 275 34 18 61 34 59 36 -2 3 -92 -6 -199
-20 -208 -27 -215 -27 -208 -21 9 9 368 66 416 66 34 0 76 12 148 42 l100 43
-45 5 c-41 5 -37 6 35 12 44 4 109 18 145 30 l65 23 -280 5 c-344 6 -269 20
110 20 215 0 260 3 320 19 284 78 551 111 894 111 282 0 515 -26 766 -86 54
-13 118 -16 275 -16 121 0 193 -3 175 -8 -16 -4 -73 -8 -125 -9 -150 -2 -159
-9 -55 -43 63 -20 112 -28 169 -30 l81 -1 -60 -7 c-67 -6 -72 -2 54 -55 107
-45 251 -117 352 -178 63 -37 107 -57 130 -58 29 -1 30 -2 11 -8 -21 -5 -15
-12 60 -64 l84 -57 266 0 c224 0 268 2 278 15 11 13 -12 15 -200 15 -118 0
-211 2 -209 4 9 10 323 46 396 46 76 0 81 1 109 31 l29 31 -70 -5 -70 -5 77
10 76 11 123 123 124 124 -52 0 c-79 0 -72 16 9 23 l72 6 105 106 106 105
-384 0 c-211 0 -382 2 -380 4 2 3 45 12 94 22 68 13 166 18 406 21 l317 5 43
45 44 45 -32 -7 c-50 -10 -217 -9 -237 2 -24 14 167 36 237 28 l52 -6 200 202
200 202 -47 -6 c-71 -10 -434 -21 -427 -13 3 3 124 21 268 39 l262 34 54 53
c30 29 52 57 49 62 -3 4 -245 8 -537 8 -404 -1 -568 -4 -682 -16 -82 -8 -231
-17 -330 -19 l-180 -4 105 21 c99 19 151 21 853 27 l748 6 -29 28 -30 29 -356
-4 c-196 -1 -349 0 -339 4 24 9 412 48 483 49 30 0 74 4 98 7 l43 7 -52 40
-53 40 -325 5 c-318 5 -324 5 -246 19 44 7 178 16 298 20 l218 6 -52 39 -51
40 -247 -17 c-135 -10 -302 -17 -371 -16 l-125 1 175 24 c96 13 243 32 325 44
83 11 154 20 159 20 14 0 -69 60 -225 164 l-146 96 -244 1 c-274 2 -262 15 26
27 l160 7 -69 39 -68 39 -217 -12 c-263 -14 -299 -13 -161 4 213 27 285 38
293 44 4 4 -28 26 -72 49 l-78 42 -549 1 c-302 0 -544 2 -539 4 34 14 676 75
783 75 l127 1 -64 29 c-61 29 -69 30 -220 31 -138 1 -149 3 -91 11 36 5 87 12
115 16 l50 7 -105 39 c-58 21 -150 54 -205 73 l-100 34 -545 2 -545 2 520 5
520 5 -90 27 c-49 14 -142 38 -205 53 -104 25 -126 27 -235 21 -66 -4 -178
-13 -250 -21 -114 -13 -630 -21 -600 -10 15 6 518 36 714 42 95 3 167 9 160
13 -37 19 -397 72 -654 95 -167 15 -181 15 -750 5z m-27 -117 c-27 -2 -69 -2
-95 0 -27 2 -5 3 47 3 52 0 74 -1 48 -3z m555 0 c-7 -2 -21 -2 -30 0 -10 3 -4
5 12 5 17 0 24 -2 18 -5z m-765 -120 c-97 -2 -259 -2 -360 0 -101 1 -21 2 177
2 198 0 280 -1 183 -2z m580 0 c-42 -2 -114 -2 -160 0 -46 1 -11 3 77 3 88 0
125 -2 83 -3z m-848 -104 c-25 -4 -79 -7 -120 -7 l-75 1 65 7 c36 4 90 7 120
7 l55 0 -45 -8z m397 5 c-3 -3 -12 -4 -19 -1 -8 3 -5 6 6 6 11 1 17 -2 13 -5z
m1483 -4 c-14 -4 -306 -8 -650 -8 -344 0 -609 4 -590 8 48 10 1271 10 1240 0z
m425 -1 c-52 -10 -289 -10 -255 1 14 4 86 8 160 8 97 0 124 -3 95 -9z m-1967
-6 c-10 -2 -26 -2 -35 0 -10 3 -2 5 17 5 19 0 27 -2 18 -5z m-669 -38 c-3 -2
-41 -11 -85 -20 -55 -10 -143 -15 -294 -15 -204 0 -216 1 -228 20 -12 20 -10
20 300 20 171 0 309 -2 307 -5z m380 0 c-9 -8 -221 -35 -273 -34 -46 1 -48 2
-21 10 59 16 307 37 294 24z m1579 0 c-3 -3 -54 -12 -114 -20 -86 -12 -244
-14 -749 -14 -352 0 -635 2 -630 5 6 2 51 10 100 18 69 11 239 14 744 15 360
0 652 -1 649 -4z m430 0 c-10 -10 -233 -35 -302 -34 l-71 1 80 18 c72 16 306
28 293 15z m-2773 -75 c-11 -5 -112 -8 -225 -8 -123 1 -183 4 -150 8 83 10
399 10 375 0z m252 4 c-3 -3 -12 -4 -19 -1 -8 3 -5 6 6 6 11 1 17 -2 13 -5z
m1263 -4 c-121 -12 -592 -12 -585 0 4 6 124 9 333 8 203 -1 298 -4 252 -8z
m-1303 -6 c-3 -3 -12 -4 -19 -1 -8 3 -5 6 6 6 11 1 17 -2 13 -5z m2903 -14
c41 -4 64 -8 50 -9 -14 -1 -155 -15 -315 -32 -196 -20 -360 -32 -505 -34 -118
-2 -206 -1 -195 2 11 3 166 22 345 43 323 37 469 45 620 30z m-1960 -40 c-336
-19 -434 -22 -427 -14 12 12 168 21 377 21 l175 0 -125 -7z m620 -6 c-29 -9
-111 -16 -235 -18 -172 -4 -179 -4 -75 4 63 5 160 14 215 18 137 13 147 12 95
-4z m-1160 -11 c-27 -12 -95 -16 -310 -20 -151 -3 -272 -2 -268 2 15 16 228
32 418 33 182 0 193 -1 160 -15z m-440 -112 c0 -10 -211 -19 -600 -24 -176 -3
-261 -1 -235 5 22 5 209 12 415 17 206 4 385 8 398 9 12 1 22 -2 22 -7z m520
-32 c-156 -22 -242 -29 -430 -33 -281 -5 -271 -3 155 33 444 38 535 38 275 0z
m585 5 c-121 -13 -269 -23 -330 -22 l-110 0 122 18 c178 27 173 27 363 27
l175 1 -220 -24z m1600 15 c-77 -4 -225 -12 -330 -18 -104 -6 -287 -15 -405
-21 -118 -6 -230 -12 -247 -14 -35 -5 -38 0 -27 42 l6 22 572 -1 c397 -2 528
-4 431 -10z m-1045 -11 c-1 -49 -88 -59 -440 -56 l-255 3 300 31 c351 36 395
39 395 22z m1440 -25 c-127 -24 -159 -25 -530 -28 -217 -1 -384 -1 -370 1 14
2 210 12 435 24 226 11 433 22 460 23 131 8 132 3 5 -20z m-3680 -23 c-36 -4
-227 -7 -425 -7 -198 0 -326 3 -285 6 118 9 784 10 710 1z m188 -57 c-38 -2
-98 -2 -135 0 -38 2 -7 3 67 3 74 0 105 -1 68 -3z m3917 -8 c-89 -12 -746 -19
-690 -8 62 12 273 20 515 20 268 0 273 0 175 -12z m-2155 -7 c0 -5 -249 -7
-552 -6 -357 2 -479 4 -343 8 311 8 895 6 895 -2z m1083 0 c-2 -5 -221 -7
-486 -6 -265 0 -459 4 -432 7 73 9 924 7 918 -1z m-3168 -58 c-93 -12 -533
-12 -515 0 9 6 129 9 295 8 176 0 258 -4 220 -8z m1800 0 c-77 -12 -1507 -12
-1500 0 4 7 273 10 778 9 425 -1 750 -5 722 -9z m985 0 c-86 -12 -772 -12
-765 0 4 6 151 9 413 9 234 -1 384 -5 352 -9z m629 6 c-9 -8 -258 -13 -253 -5
3 5 62 9 131 9 70 0 124 -2 122 -4z m-2211 -101 c-2 -3 -124 -23 -271 -45
-263 -40 -269 -40 -554 -40 -284 0 -291 0 -530 37 -134 21 -243 41 -243 45 0
5 361 8 802 8 441 0 799 -2 796 -5z m781 0 c-3 -2 -161 -23 -353 -45 -283 -33
-379 -40 -519 -39 -95 0 -167 2 -162 4 6 3 114 20 240 39 127 19 241 37 255
39 35 6 544 8 539 2z m930 0 c-3 -2 -123 -23 -268 -45 -250 -38 -273 -40 -459
-38 l-197 3 280 41 c243 36 305 42 464 43 101 0 182 -1 180 -4z m1056 -7
c-609 -67 -769 -79 -1045 -76 l-275 3 265 42 265 41 435 0 c308 -1 412 -3 355
-10z m-4361 -39 c77 -11 157 -24 176 -29 20 -5 -122 -8 -342 -9 -208 -1 -378
3 -378 7 0 9 281 48 359 51 24 0 107 -8 185 -20z m5213 5 c-140 -23 -386 -35
-812 -40 -231 -2 -415 -2 -410 0 21 10 369 39 535 46 96 4 308 7 470 7 275 1
290 0 217 -13z m-5814 -1 c-13 -2 -33 -2 -45 0 -13 2 -3 4 22 4 25 0 35 -2 23
-4z m5887 -93 c-25 -4 -76 -10 -115 -13 l-70 -6 65 13 c36 8 88 14 115 14 l50
0 -45 -8z m-4900 -46 c-215 -32 -475 -33 -593 -3 -45 11 -84 23 -86 25 -2 2
184 3 415 3 l419 -1 -155 -24z m749 17 c-19 -4 -58 -4 -85 0 -42 5 -36 6 36 7
59 0 74 -2 49 -7z m1056 -16 c-115 -21 -160 -24 -390 -23 l-260 0 140 23 c119
19 178 23 390 23 l250 0 -130 -23z m675 19 c-8 -2 -103 -10 -210 -18 -386 -31
-421 -30 -224 3 78 14 158 19 279 19 94 0 163 -2 155 -4z m443 -1 c-13 -2 -35
-2 -50 0 -16 2 -5 4 22 4 28 0 40 -2 28 -4z m1775 0 c-10 -2 -26 -2 -35 0 -10
3 -2 5 17 5 19 0 27 -2 18 -5z m-4224 -15 c141 -18 74 -29 -158 -26 l-201 3
105 16 c134 21 146 21 254 7z m4144 5 c-10 -2 -28 -2 -40 0 -13 2 -5 4 17 4
22 1 32 -1 23 -4z m-75 -10 c-7 -2 -21 -2 -30 0 -10 3 -4 5 12 5 17 0 24 -2
18 -5z m-3566 -9 c-3 -3 -12 -4 -19 -1 -8 3 -5 6 6 6 11 1 17 -2 13 -5z m2616
-1 c-7 -2 -21 -2 -30 0 -10 3 -4 5 12 5 17 0 24 -2 18 -5z m870 0 c-7 -2 -19
-2 -25 0 -7 3 -2 5 12 5 14 0 19 -2 13 -5z m-990 -10 c-18 -2 -48 -2 -65 0
-18 2 -4 4 32 4 36 0 50 -2 33 -4z m-513 -63 c-9 -6 -162 -9 -390 -8 -214 1
-332 4 -275 8 174 11 681 11 665 0z m1850 1 c-30 -17 -199 -31 -351 -30 -146
2 -150 2 -75 11 78 9 308 24 396 26 29 1 40 -2 30 -7z m-1237 -8 c-7 -2 -21
-2 -30 0 -10 3 -4 5 12 5 17 0 24 -2 18 -5z m-4188 -54 c-22 -4 -71 -7 -110
-7 l-70 2 75 6 c41 4 91 7 110 7 l35 1 -40 -9z m2251 -9 c76 -11 139 -22 141
-24 2 -1 -115 -6 -259 -10 -145 -4 -337 -11 -428 -16 -166 -9 -557 -14 -549
-6 10 10 471 57 634 65 284 13 316 12 461 -9z m854 0 c-184 -28 -460 -28 -610
-2 l-115 20 425 0 425 0 -125 -18z m-2035 -35 c-147 -29 -189 -30 -285 -8
l-75 18 80 6 c44 3 152 6 240 6 l160 1 -120 -23z m-440 -4 l70 -19 -485 0
c-552 1 -567 14 -30 27 179 4 336 8 350 9 14 1 57 -7 95 -17z m2590 -31 c-27
-5 -93 -8 -145 -7 -83 0 -88 1 -40 7 30 4 96 7 145 7 78 0 84 -1 40 -7z m2203
5 c-8 -8 -348 -45 -408 -44 -53 1 -52 2 50 24 76 17 140 23 234 24 71 1 127
-1 124 -4z m-488 -9 c0 -2 -39 -11 -87 -19 -91 -17 -353 -29 -353 -17 0 12
220 37 333 39 59 0 107 -1 107 -3z m-620 -22 c-134 -24 -1008 -45 -1039 -25
-8 5 46 11 140 15 165 7 762 23 894 23 l80 0 -75 -13z m-4207 -11 c-167 -2
-439 -2 -605 0 -167 1 -31 2 302 2 333 0 469 -1 303 -2z m1194 1 c-3 -3 -12
-4 -19 -1 -8 3 -5 6 6 6 11 1 17 -2 13 -5z m1416 -21 c-23 -2 -64 -2 -90 0
-26 2 -7 3 42 3 50 0 71 -1 48 -3z m704 -55 c149 -22 40 -31 -407 -34 -394 -2
-420 -1 -350 12 140 27 630 41 757 22z m261 5 c-16 -2 -40 -2 -55 0 -16 2 -3
4 27 4 30 0 43 -2 28 -4z m421 3 c-2 -2 -49 -6 -104 -9 -60 -3 -82 -2 -55 2
48 9 166 14 159 7z m-4199 -37 c-25 -4 -101 -7 -170 -7 -90 1 -111 3 -75 8 75
10 303 10 245 -1z m1445 0 c-22 -4 -269 -7 -550 -7 -280 1 -485 4 -455 8 81
10 1053 9 1005 -1z m825 0 c-25 -4 -61 -7 -80 -7 l-35 0 30 8 c17 4 53 8 80 8
l50 -1 -45 -8z m2448 -45 c-12 -12 -215 -32 -248 -25 l-35 8 45 6 c25 4 56 8
70 11 41 6 174 6 168 0z m627 -4 c-39 -16 -322 -52 -451 -57 -114 -5 -233 2
-222 12 3 3 314 41 393 48 86 8 299 5 280 -3z m461 1 c-3 -4 -31 -11 -63 -14
-32 -3 -141 -17 -243 -32 -421 -59 -490 -65 -490 -45 0 6 14 10 30 10 17 0
151 18 298 40 147 22 283 41 302 43 72 8 171 7 166 -2z m-1672 -11 c35 0 10
-10 -50 -20 -105 -18 -576 -71 -581 -66 -3 2 17 8 44 12 26 4 149 24 273 45
124 21 241 36 260 34 19 -3 44 -5 54 -5z m-629 -46 c-260 -43 -339 -50 -431
-37 -76 11 420 80 576 81 l115 0 -260 -44z m-3693 14 c-70 -5 -155 -5 -200 1
-64 7 -44 8 123 8 l200 0 -123 -9z m963 7 c-10 -4 -269 -49 -380 -66 -43 -6
-107 -4 -227 8 -92 10 -165 20 -162 22 3 3 143 13 312 22 304 16 476 21 457
14z m325 -5 c-30 -5 -77 -8 -105 -8 l-50 1 40 7 c22 4 69 7 105 7 l65 0 -55
-7z m435 0 c-33 -10 -529 -84 -665 -99 -47 -6 -112 -11 -145 -12 -70 -3 -185
10 -185 20 0 4 66 12 148 19 525 44 804 71 811 78 2 2 18 4 35 3 l31 -1 -30
-8z m1190 -6 c-79 -11 -132 -11 -255 -3 -85 6 -157 13 -159 15 -2 2 112 3 255
3 l259 -2 -100 -13z m1619 6 c48 0 -3 -12 -153 -35 -92 -14 -201 -24 -250 -24
l-86 1 100 14 c55 8 152 23 215 33 63 10 124 17 135 15 11 -2 29 -4 39 -4z
m-3411 -17 c-7 -2 -19 -2 -25 0 -7 3 -2 5 12 5 14 0 19 -2 13 -5z m1317 -8
c74 -8 142 -15 150 -16 8 -1 -14 -8 -50 -16 -48 -10 -183 -17 -505 -22 -242
-5 -441 -7 -443 -6 -2 1 41 8 95 14 54 7 181 23 283 35 224 28 295 30 470 11z
m653 -2 c-7 -2 -21 -2 -30 0 -10 3 -4 5 12 5 17 0 24 -2 18 -5z m1622 -14
c-80 -7 -175 -9 -160 -3 22 9 152 19 190 14 35 -4 31 -5 -30 -11z m-4695 -14
c47 -3 130 -11 185 -18 98 -11 99 -12 50 -19 -27 -3 -124 -10 -215 -14 -151
-6 -172 -5 -245 15 -44 12 -87 25 -95 29 -18 8 125 20 190 15 25 -1 83 -5 130
-8z m2773 -12 c-13 -2 -33 -2 -45 0 -13 2 -3 4 22 4 25 0 35 -2 23 -4z m-2158
-52 l50 -7 -45 -7 c-61 -9 -294 -27 -333 -26 -45 2 178 46 233 47 25 0 68 -3
95 -7z m4145 -1 c-52 -9 -791 -23 -774 -15 6 3 47 9 90 14 100 11 745 11 684
1z m-3100 -7 c-36 -2 -132 -10 -215 -18 -171 -17 -205 -18 -160 -4 61 19 144
27 290 26 83 -1 121 -2 85 -4z m1260 -13 c-75 -13 -165 -19 -313 -20 -114 -1
-210 0 -213 2 -13 14 266 33 516 35 l115 1 -105 -18z m680 11 c62 -8 47 -16
-50 -25 -55 -6 -366 -10 -385 -6 -18 4 269 37 325 38 30 0 80 -3 110 -7z
m2465 0 l90 -6 -115 -8 c-79 -5 -146 -3 -215 7 l-100 13 125 1 c69 0 166 -3
215 -7z m-4900 -16 c-47 -16 -115 -19 -115 -6 0 10 49 17 120 18 l35 1 -40
-13z m4443 -1 c127 -12 64 -19 -128 -15 l-185 4 100 13 c55 6 109 10 120 8 11
-1 53 -6 93 -10z m-5505 -1 c-13 -2 -35 -2 -50 0 -16 2 -5 4 22 4 28 0 40 -2
28 -4z m-213 -10 c0 -12 -672 -15 -701 -4 -16 7 92 10 339 10 199 1 362 -2
362 -6z m2007 1 c-3 -3 -12 -4 -19 -1 -8 3 -5 6 6 6 11 1 17 -2 13 -5z m3348
-44 c-16 -4 -93 -7 -170 -7 -91 0 -124 2 -95 7 62 10 303 10 265 0z m800 -10
c-75 -12 -203 -12 -185 0 8 5 65 9 125 9 91 -1 102 -3 60 -9z m-5651 -57 c14
-7 -1 -12 -60 -16 -105 -9 -319 -9 -310 1 25 25 330 37 370 15z m903 7 c-63
-19 -213 -30 -408 -30 -113 0 -209 3 -213 8 -4 4 30 12 76 18 98 13 587 17
545 4z m613 0 c-78 -11 -230 -11 -205 0 11 5 74 8 140 8 98 -1 110 -2 65 -8z
m2615 0 c20 -5 -6 -8 -76 -9 -58 0 -135 -4 -170 -7 -35 -4 -61 -3 -57 1 16 17
249 29 303 15z m1195 0 c-39 -8 -506 -22 -498 -15 3 3 45 9 94 14 114 11 452
12 404 1z m-6005 -20 c-16 -4 -73 -7 -125 -7 -82 0 -87 1 -40 7 80 10 203 10
165 0z m-240 -100 c-44 -11 -108 -11 -125 0 -10 7 12 9 70 9 60 -1 76 -4 55
-9z m1075 0 c-25 -4 -178 -10 -340 -14 -162 -3 -367 -8 -455 -11 -167 -4 -148
5 53 24 108 10 804 11 742 1z m820 0 c-14 -4 -34 -8 -45 -9 -16 -1 -17 1 -5 9
8 5 29 9 45 9 29 -1 29 -1 5 -9z m680 0 c-64 -15 -301 -30 -444 -29 l-141 1
120 18 c123 18 539 27 465 10z m1895 0 c-16 -4 -153 -23 -303 -41 l-272 -33
-123 20 c-137 23 -138 23 73 47 134 15 678 22 625 7z m863 5 c-4 -5 -461 -52
-958 -100 -168 -16 -353 -12 -285 7 17 4 176 26 355 48 179 21 339 41 355 43
46 6 539 8 533 2z m-5518 -30 c29 -18 -16 -25 -167 -25 -92 0 -163 3 -159 7
23 23 294 38 326 18z m1763 -2 c-7 -2 -21 -2 -30 0 -10 3 -4 5 12 5 17 0 24
-2 18 -5z m-175 -10 c-21 -2 -55 -2 -75 0 -21 2 -4 4 37 4 41 0 58 -2 38 -4z
m1749 -20 c-20 -2 -52 -2 -70 0 -17 2 0 4 38 4 39 0 53 -2 32 -4z m386 -25
c71 -6 124 -14 118 -17 -13 -9 -377 16 -421 29 -42 11 102 6 303 -12z m-114
-44 c2 -2 -43 -4 -100 -4 -63 0 -99 4 -90 9 12 8 180 3 190 -5z m1408 0 c-3
-3 -12 -4 -19 -1 -8 3 -5 6 6 6 11 1 17 -2 13 -5z m1458 -3 c-6 -5 -57 -11
-115 -15 -58 -3 -100 -3 -94 -1 41 20 227 34 209 16z m-5645 -77 c-51 -10
-136 -13 -265 -11 -177 2 -185 3 -125 13 36 6 155 12 265 12 200 0 200 0 125
-14z m410 0 c-69 -8 -152 -13 -185 -12 l-60 3 65 11 c36 6 119 11 185 11 l120
1 -125 -14z m1718 9 c-86 -2 -230 -2 -320 0 -90 1 -19 3 157 3 176 0 249 -2
163 -3z m1327 -3 c-38 -4 -115 -7 -170 -7 -83 0 -91 1 -45 7 30 4 107 7 170 7
105 0 109 -1 45 -7z m-2340 -10 c52 -5 26 -7 -105 -7 -99 0 -162 3 -145 7 38
10 158 10 250 0z m3860 -5 c-92 -17 -212 -29 -204 -21 8 8 197 34 244 34 17 0
-1 -6 -40 -13z m-6438 -11 c-3 -3 -12 -4 -19 -1 -8 3 -5 6 6 6 11 1 17 -2 13
-5z m503 -124 c-241 -25 -325 -32 -319 -25 20 20 205 43 339 43 l145 0 -165
-18z m495 5 c-110 -17 -221 -27 -213 -20 8 8 194 33 248 33 35 0 27 -3 -35
-13z m370 -5 c-103 -19 -271 -35 -246 -24 19 9 259 42 306 42 24 0 1 -7 -60
-18z m677 13 c-73 -2 -190 -2 -260 0 -70 1 -10 3 133 3 143 0 200 -2 127 -3z
m-2029 -30 c-7 -2 -21 -2 -30 0 -10 3 -4 5 12 5 17 0 24 -2 18 -5z m6327 -3
c0 -12 -413 -13 -480 -1 -28 6 51 9 218 10 169 1 262 -3 262 -9z m-3926 -20
c-48 -10 -343 -40 -387 -40 -67 0 -13 10 138 24 88 9 176 17 195 19 19 2 49 4
65 4 23 1 21 -1 -11 -7z m-1544 -43 c-48 -18 -79 -21 -245 -23 l-190 -2 165
23 c91 12 201 23 245 23 l80 1 -55 -22z m785 13 c-63 -13 -409 -32 -520 -28
l-100 3 90 16 c67 12 152 17 330 17 149 0 225 -3 200 -8z m-1660 -16 c-145
-14 -211 -17 -203 -8 7 7 191 21 273 21 37 0 10 -5 -70 -13z m-228 -20 c-3 -3
-12 -4 -19 -1 -8 3 -5 6 6 6 11 1 17 -2 13 -5z m2721 -1 c-32 -2 -84 -2 -115
0 -32 2 -6 3 57 3 63 0 89 -1 58 -3z m3575 0 c-13 -2 -33 -2 -45 0 -13 2 -3 4
22 4 25 0 35 -2 23 -4z m-3840 -10 c-7 -2 -21 -2 -30 0 -10 3 -4 5 12 5 17 0
24 -2 18 -5z m3727 -4 c-25 -4 -61 -7 -80 -7 l-35 1 35 7 c19 4 55 7 80 7 l45
0 -45 -8z m-3697 -56 c-100 -2 -266 -2 -370 0 -103 1 -21 2 182 2 204 0 288
-1 188 -2z m4329 0 c-51 -2 -132 -2 -180 0 -48 1 -6 3 93 3 99 0 138 -2 87 -3z
m-4547 -53 c-114 -23 -442 -61 -464 -54 -14 4 -152 10 -306 13 l-280 6 160 21
c139 19 210 22 545 22 216 0 367 -4 345 -8z m414 5 c-11 -11 -405 -65 -466
-64 -86 2 -79 3 152 38 170 26 326 39 314 26z m3591 -5 l55 -7 -60 0 c-33 0
-91 3 -130 7 l-70 7 75 0 c41 1 100 -2 130 -7z m870 -1 c-25 -4 -124 -7 -220
-7 -106 1 -157 4 -130 8 65 10 407 10 350 -1z m-6105 -20 c-52 -12 -342 -24
-333 -14 6 6 226 21 333 22 l40 1 -40 -9z m5555 -50 c-13 -6 -117 -12 -230
-14 -198 -4 -200 -3 -65 5 77 5 163 11 190 13 28 2 68 4 90 5 36 1 37 0 15 -9z
m70 -90 c-25 -4 -58 -7 -75 -7 -25 1 -24 2 10 8 22 4 56 7 75 7 31 0 30 0 -10
-8z m-113 -15 c-3 -3 -12 -4 -19 -1 -8 3 -5 6 6 6 11 1 17 -2 13 -5z m351 -1
c-10 -2 -26 -2 -35 0 -10 3 -2 5 17 5 19 0 27 -2 18 -5z m-5149 -58 c-3 -2
-61 -14 -129 -26 -110 -19 -170 -22 -505 -26 -229 -2 -374 0 -365 6 28 16
1015 63 999 46z m-1449 -145 c-116 -13 -586 -22 -575 -11 14 14 77 17 375 18
164 0 240 -2 200 -7z m1745 0 c-42 -11 -395 -11 -420 0 -12 5 76 8 215 8 129
0 222 -4 205 -8z m-498 -27 c30 -3 52 -8 49 -10 -7 -7 -306 -8 -306 -1 0 9
139 27 174 22 17 -2 54 -7 83 -11z m4 -63 c-38 -9 -66 -33 -57 -49 5 -7 60
-11 154 -12 106 -1 136 -4 107 -10 -46 -9 -1282 -12 -1272 -3 3 3 115 23 249
44 242 38 244 38 548 38 172 0 290 -3 271 -8z m589 -5 c-46 -8 -153 -13 -280
-13 -193 0 -201 1 -140 13 40 8 149 13 280 13 209 0 213 -1 140 -13z m-1947
-62 c-7 -2 -19 -2 -25 0 -7 3 -2 5 12 5 14 0 19 -2 13 -5z m-565 -90 c-15 -2
-42 -2 -60 0 -18 2 -6 4 27 4 33 0 48 -2 33 -4z m1075 0 c-138 -2 -368 -2
-510 0 -142 1 -28 2 252 2 281 0 397 -1 258 -2z m555 0 c-21 -2 -55 -2 -75 0
-21 2 -4 4 37 4 41 0 58 -2 38 -4z m197 -53 c-64 -10 -326 -10 -270 0 22 4
103 7 180 7 103 0 127 -2 90 -7z m413 3 c-21 -2 -55 -2 -75 0 -21 2 -4 4 37 4
41 0 58 -2 38 -4z m-1019 -13 c-29 -8 -310 -23 -293 -14 9 4 222 20 294 22
l25 0 -26 -8z m-20 -84 c-14 -15 -250 -36 -382 -35 -186 2 -168 6 95 23 238
15 293 18 287 12z m541 -76 c-14 -4 -205 -8 -425 -8 -220 1 -382 4 -360 8 55
10 816 10 785 0z m-495 -51 c10 -11 -341 -29 -545 -28 -166 0 -208 3 -185 11
18 7 166 14 360 17 362 7 362 7 370 0z m423 -6 c-15 -2 -42 -2 -60 0 -18 2 -6
4 27 4 33 0 48 -2 33 -4z m-115 -10 c-7 -2 -21 -2 -30 0 -10 3 -4 5 12 5 17 0
24 -2 18 -5z m172 -53 c6 -10 -144 -19 -395 -24 -153 -4 -190 -3 -145 5 33 5
157 13 275 17 118 4 225 8 238 9 12 0 24 -3 27 -7z m-280 -249 l90 -6 -120
-12 c-66 -7 -194 -15 -285 -18 -91 -3 -187 -8 -215 -10 -38 -4 -45 -3 -30 5
26 13 320 48 405 48 36 0 106 -3 155 -7z m-272 -188 c-7 -2 -21 -2 -30 0 -10
3 -4 5 12 5 17 0 24 -2 18 -5z"/>
<path d="M8980 9243 c-74 -7 -166 -16 -203 -20 l-68 -8 95 -82 c53 -46 102
-83 109 -83 7 0 33 20 57 45 l44 45 -29 1 c-27 1 -25 2 11 10 27 7 54 24 84
54 24 25 42 46 39 48 -2 2 -65 -3 -139 -10z"/>
<path d="M1565 8879 c-52 -10 -85 -37 -85 -70 0 -10 -4 -19 -9 -19 -5 0 -13
-10 -17 -22 -4 -13 -17 -45 -30 -72 -36 -74 -35 -75 49 -61 104 18 288 38 317
34 14 -2 -63 -17 -170 -32 -243 -35 -237 -33 -244 -53 -6 -15 1 -16 56 -10 99
11 512 76 517 82 3 2 -4 11 -15 18 -10 8 -66 51 -124 96 l-104 82 -56 -6 c-37
-4 -48 -3 -35 3 11 5 30 10 43 10 25 1 29 16 6 25 -19 7 -34 6 -99 -5z m104
-73 c-2 -2 -31 -6 -64 -9 -39 -4 -54 -3 -45 3 14 9 119 15 109 6z"/>
<path d="M1911 8579 c-54 -15 -139 -23 -315 -32 -213 -11 -241 -14 -244 -29
-3 -16 8 -17 120 -13 137 5 134 1 -32 -29 l-114 -21 -19 -49 c-9 -27 -15 -51
-13 -54 3 -2 83 10 179 27 217 39 332 51 572 59 l190 7 -32 20 c-17 11 -63 46
-102 78 -43 35 -79 57 -93 56 -13 0 -56 -10 -97 -20z m138 -43 c-2 -2 -83 -17
-179 -34 -173 -30 -298 -47 -289 -38 10 10 251 58 329 65 105 10 145 12 139 7z"/>
<path d="M1935 8400 c-132 -16 -303 -40 -380 -54 -77 -14 -172 -26 -211 -26
l-71 0 -23 -70 c-13 -39 -20 -73 -18 -76 3 -2 61 2 129 10 169 20 399 39 404
34 3 -2 -113 -21 -258 -42 -144 -21 -269 -39 -278 -42 -16 -4 -42 -48 -33 -57
3 -2 25 -1 50 4 91 17 613 65 604 55 -15 -14 -336 -87 -495 -111 -99 -15 -183
-33 -187 -39 -15 -21 -8 -28 25 -22 24 5 27 4 12 -3 -11 -5 -28 -12 -37 -15
-10 -3 -20 -20 -24 -43 -4 -21 -10 -45 -14 -53 -4 -8 -10 -30 -13 -47 l-6 -33
72 -1 72 -1 -74 -12 c-69 -10 -75 -13 -84 -39 -5 -16 -7 -31 -3 -34 3 -3 69 4
148 15 78 12 144 19 146 17 6 -6 -212 -74 -263 -82 -45 -8 -50 -11 -53 -37 -3
-26 -1 -28 25 -22 15 3 51 7 78 10 l50 5 -50 -13 c-27 -8 -59 -15 -70 -15 -11
-1 -26 -5 -33 -10 -13 -8 -37 -90 -29 -98 4 -3 459 54 582 74 22 3 38 3 35 0
-7 -7 -444 -93 -544 -107 -44 -5 -80 -11 -81 -13 -1 -1 -5 -14 -9 -29 -5 -24
-3 -28 14 -28 32 0 408 36 1059 101 332 33 613 59 625 57 12 -2 -213 -33 -499
-70 -356 -46 -569 -69 -675 -73 -93 -3 -199 -13 -265 -26 -60 -11 -145 -23
-188 -26 -42 -3 -79 -9 -82 -13 -2 -3 -11 -67 -20 -141 -9 -74 -18 -142 -21
-151 -5 -16 3 -18 63 -19 l68 -2 -67 -15 -66 -15 -4 -44 -3 -44 65 5 65 5 -65
-12 c-62 -11 -65 -13 -68 -42 l-3 -31 113 13 c117 12 184 16 177 9 -4 -4 -263
-36 -289 -36 -5 0 -10 -11 -10 -24 0 -19 6 -26 28 -29 l27 -4 -27 -2 c-24 -1
-28 -5 -28 -31 0 -16 2 -30 4 -30 2 0 80 9 173 20 301 36 464 50 698 61 285
13 332 9 150 -14 -129 -16 -918 -129 -992 -142 -35 -6 -47 -35 -15 -35 17 0
99 12 632 90 237 35 1200 157 1200 153 0 -12 -87 -29 -300 -58 -135 -19 -318
-46 -406 -60 -89 -14 -314 -43 -499 -65 -385 -46 -636 -86 -647 -103 -4 -7 -8
-34 -8 -60 l0 -49 38 6 c120 17 221 28 233 24 7 -2 -49 -13 -126 -24 l-140
-19 0 -50 0 -50 73 3 c39 2 72 1 72 -1 0 -3 -31 -11 -70 -17 -62 -10 -70 -14
-70 -34 l0 -22 93 12 c132 19 309 36 314 31 7 -8 -220 -46 -315 -53 l-93 -7 3
-55 3 -55 105 1 c114 1 107 -6 -30 -30 -85 -15 -79 -5 -67 -128 4 -36 9 -102
13 -147 5 -67 10 -83 23 -83 9 0 230 27 491 60 261 34 484 59 495 58 34 -5
-589 -97 -765 -113 -235 -22 -230 -21 -230 -53 0 -15 4 -33 8 -39 8 -12 206
13 727 91 110 16 305 31 305 24 0 -3 -46 -26 -102 -51 -85 -38 -123 -48 -218
-61 -116 -15 -694 -106 -696 -109 -1 -1 1 -19 4 -40 4 -33 7 -38 26 -33 11 3
41 7 66 10 37 4 34 3 -18 -10 l-64 -16 7 -47 c10 -70 15 -81 38 -82 22 0 22 0
1 -9 -19 -8 -20 -12 -10 -60 l10 -51 46 6 c158 21 473 49 455 41 -5 -3 -109
-19 -230 -36 -273 -38 -266 -36 -258 -56 5 -13 15 -15 47 -10 23 3 178 26 346
51 168 25 449 59 625 75 176 16 337 32 358 35 76 11 26 -13 -60 -29 -243 -43
-868 -131 -1195 -167 -67 -7 -108 -16 -107 -23 1 -6 4 -22 8 -36 l7 -25 169 2
170 2 -140 -19 c-77 -10 -150 -19 -163 -19 -17 -1 -22 -6 -20 -18 3 -13 12
-17 33 -16 43 4 525 63 555 69 24 4 24 4 3 -5 -52 -23 -443 -91 -526 -91 -51
0 -58 -9 -43 -55 l14 -39 53 1 54 2 -48 -11 -48 -10 6 -39 c4 -21 17 -67 29
-101 20 -55 26 -63 46 -60 14 2 20 0 16 -7 -4 -6 -14 -11 -23 -11 -11 0 -13
-5 -8 -17 4 -10 14 -36 22 -58 l14 -40 257 2 c290 2 278 -8 -33 -27 -110 -7
-202 -14 -204 -16 -4 -3 17 -65 42 -126 7 -17 20 -28 31 -28 11 0 110 11 220
25 111 13 239 29 286 34 310 37 356 45 388 63 17 11 32 21 32 23 0 1 -21 1
-47 -1 -46 -3 -45 -3 19 14 55 14 84 30 158 87 49 39 86 71 82 73 -4 1 -123
-16 -262 -39 -231 -37 -277 -41 -490 -46 -129 -3 -233 -3 -230 0 5 5 322 68
468 92 45 8 192 26 325 40 133 14 256 28 272 30 17 3 62 29 100 58 55 41 66
53 50 55 -11 2 -209 -24 -440 -57 -388 -56 -693 -87 -590 -60 43 11 876 166
1070 199 95 16 123 25 149 47 l31 26 -35 -6 c-74 -13 -283 -38 -287 -34 -4 4
264 70 349 86 38 7 73 29 192 122 80 62 144 115 142 117 -2 1 -66 -13 -142
-33 -118 -30 -171 -38 -353 -51 -248 -17 -336 -15 -146 4 72 8 191 26 265 42
74 16 197 36 273 45 110 12 145 20 168 37 16 12 29 25 29 30 0 19 -138 2 -300
-36 -59 -14 -682 -87 -733 -86 -17 1 -14 5 17 21 31 17 139 34 520 84 265 35
482 64 483 64 4 2 -39 121 -45 121 -3 0 -75 -13 -161 -30 -192 -36 -536 -63
-553 -42 -6 7 -9 14 -7 16 2 2 164 22 359 45 195 23 356 44 358 45 1 2 0 10
-3 18 -6 15 9 17 -637 -62 -220 -27 -332 -36 -303 -25 24 10 451 77 675 106
135 18 246 33 248 34 1 1 -3 26 -9 55 l-11 52 -37 -5 c-135 -22 -133 -22 -51
18 l76 36 -4 37 c-6 55 -17 63 -76 58 -83 -9 -484 -25 -728 -30 -338 -8 -312
6 157 84 165 28 371 56 458 62 109 9 157 16 157 24 0 34 -13 44 -59 45 l-46 1
47 10 46 10 -5 96 c-3 54 -7 98 -8 100 -1 2 -135 -18 -298 -43 l-295 -45 -368
0 c-202 0 -365 2 -363 4 3 3 94 16 204 30 110 14 355 48 545 76 190 28 396 53
458 57 l112 6 0 45 0 45 -37 -6 c-55 -9 -216 -25 -308 -31 -118 -7 -46 7 165
35 175 22 180 23 180 46 0 17 -6 23 -22 23 -13 0 -248 -22 -522 -50 -275 -27
-502 -47 -505 -45 -2 3 1 5 8 5 26 0 1033 150 1042 156 12 7 12 54 -1 54 -6 0
-6 9 0 26 6 14 10 39 10 56 0 30 -1 30 -42 24 -24 -3 -68 -8 -98 -11 -53 -5
-51 -3 45 28 l100 33 6 54 c3 30 5 56 5 57 -1 1 -77 -10 -170 -23 -93 -14
-171 -23 -173 -20 -9 9 68 26 197 42 138 17 160 26 160 65 0 11 -6 16 -17 14
-77 -15 -86 -15 -73 0 7 8 29 15 50 15 33 0 38 3 44 28 3 15 8 37 12 50 5 19
3 22 -20 22 -16 0 -25 4 -21 10 3 6 14 10 25 10 17 0 47 57 35 68 -3 3 -147
-12 -321 -32 -334 -40 -435 -44 -163 -7 155 21 490 78 494 83 1 2 5 16 9 31 6
27 5 28 -21 23 -58 -11 -796 -97 -829 -96 -21 1 114 50 166 61 30 6 156 34
280 62 154 34 258 52 329 56 l104 6 12 47 c6 26 11 49 9 51 -2 1 -45 -1 -96
-5 -51 -4 -94 -6 -96 -4 -4 4 141 26 173 26 15 0 29 9 36 21 11 21 10 21 -47
16 l-59 -5 60 12 c43 8 61 17 63 29 2 9 1 17 -1 17 -3 0 -135 -22 -294 -50
-158 -27 -398 -63 -532 -80 -218 -27 -246 -29 -261 -15 -12 11 -43 15 -126 16
-107 1 -102 2 251 50 389 53 894 119 908 119 5 0 3 7 -4 16 -10 13 -26 15 -79
11 l-65 -6 55 11 54 10 -34 29 c-22 18 -47 29 -67 29 -18 0 -213 -22 -435 -50
-222 -27 -475 -56 -563 -64 -88 -8 -238 -22 -333 -31 -182 -18 -241 -16 -131
3 36 7 137 30 225 51 137 34 617 120 979 176 141 22 147 25 104 58 -30 23 -41
25 -104 22 l-70 -4 60 12 60 13 -26 17 c-14 10 -32 15 -40 13 -8 -3 -102 -10
-209 -16 -107 -6 -206 -13 -220 -16 -56 -12 -3 11 107 47 96 32 133 39 198 39
73 1 78 2 61 15 -11 8 -28 15 -39 15 -10 0 -16 4 -12 9 7 13 -129 121 -152
121 -10 0 -87 -11 -173 -25 -85 -13 -261 -41 -390 -60 -270 -41 -531 -83 -575
-91 -16 -4 -27 -3 -24 0 13 13 115 36 299 67 102 17 255 49 340 71 144 37 167
40 338 45 133 4 180 9 172 17 -6 6 -55 13 -108 16 l-97 5 65 20 64 20 -32 21
-32 20 -247 -38 c-357 -54 -354 -53 -248 -18 71 24 126 34 260 46 215 19 223
21 204 40 -13 12 -34 12 -167 -1 -200 -19 -242 -5 -59 19 74 10 140 22 146 26
19 11 -88 92 -114 86 -47 -11 -185 -28 -197 -24 -7 3 25 10 72 17 144 21 138
18 99 47 -40 29 -38 29 -344 -6z m170 -135 c-44 -8 -91 -13 -105 -13 -36 1
109 26 150 26 19 0 -1 -6 -45 -13z m-142 -22 c-7 -2 -19 -2 -25 0 -7 3 -2 5
12 5 14 0 19 -2 13 -5z m-70 -10 c-7 -2 -19 -2 -25 0 -7 3 -2 5 12 5 14 0 19
-2 13 -5z m-70 -10 c-7 -2 -19 -2 -25 0 -7 3 -2 5 12 5 14 0 19 -2 13 -5z
m282 -3 c-16 -4 -46 -8 -65 -8 l-35 1 35 7 c19 4 49 7 65 8 l30 0 -30 -8z
m-154 -150 c-35 -11 -146 -33 -245 -50 -100 -18 -223 -40 -275 -51 -52 -10
-96 -18 -98 -16 -9 10 263 73 437 102 224 38 272 41 181 15z m764 -29 c-11
-11 -312 -64 -329 -58 -16 6 78 27 212 47 64 10 119 18 122 19 2 0 0 -3 -5 -8z
m-547 -77 c-16 -15 -163 -44 -248 -49 l-95 -5 165 29 c199 34 185 32 178 25z
m437 -53 c-16 -14 -275 -80 -356 -91 -78 -10 -236 -14 -227 -5 9 9 393 87 468
95 110 11 125 11 115 1z m-1290 -26 c-22 -8 -65 -13 -95 -13 l-55 1 70 12 c96
17 133 17 80 0z m780 -5 c-75 -14 -140 -22 -134 -16 9 10 89 24 134 24 l40 0
-40 -8z m-327 -35 c-51 -19 -175 -35 -256 -34 -91 1 -70 7 104 28 182 23 199
23 152 6z m170 -70 c-7 -7 -540 -106 -545 -101 -9 8 214 76 297 90 82 13 259
21 248 11z m332 -5 c-14 -4 -38 -8 -55 -8 l-30 0 30 8 c17 4 41 8 55 8 l25 0
-25 -8z m320 1 c0 -14 -140 -51 -271 -71 -68 -11 -270 -36 -449 -55 -179 -19
-338 -38 -355 -41 -16 -4 -27 -4 -24 0 15 16 289 64 669 116 234 32 426 58
428 59 1 1 2 -3 2 -8z m165 0 c-11 -5 -40 -11 -65 -15 -41 -5 -43 -5 -26 9 12
9 39 15 65 14 33 0 40 -2 26 -8z m-738 -157 c-3 -3 -12 -4 -19 -1 -8 3 -5 6 6
6 11 1 17 -2 13 -5z m1222 2 c-8 -8 -361 -55 -449 -60 -110 -6 -82 -1 185 33
229 30 271 34 264 27z m-551 -73 c-10 -2 -28 -2 -40 0 -13 2 -5 4 17 4 22 1
32 -1 23 -4z m120 -30 c-10 -2 -28 -2 -40 0 -13 2 -5 4 17 4 22 1 32 -1 23 -4z
m-1045 -60 c-7 -2 -19 -2 -25 0 -7 3 -2 5 12 5 14 0 19 -2 13 -5z m-85 -10
c-10 -2 -26 -2 -35 0 -10 3 -2 5 17 5 19 0 27 -2 18 -5z m1599 1 c-3 -3 -12
-4 -19 -1 -8 3 -5 6 6 6 11 1 17 -2 13 -5z m-1704 -11 c-13 -2 -33 -2 -45 0
-13 2 -3 4 22 4 25 0 35 -2 23 -4z m-90 -10 c-13 -2 -33 -2 -45 0 -13 2 -3 4
22 4 25 0 35 -2 23 -4z m652 -98 c-54 -8 -184 -13 -325 -13 -226 1 -232 1
-150 13 48 7 188 12 325 12 236 0 238 0 150 -12z m625 -85 c-89 -20 -127 -25
-132 -17 -4 6 -6 13 -4 14 6 6 190 31 226 31 19 0 -21 -12 -90 -28z m-1265 10
c4 -7 -69 -9 -212 -8 l-218 2 210 6 c116 3 211 7 212 8 1 1 5 -2 8 -8z m982
-67 c-60 -13 -69 -12 -89 1 -21 15 -17 16 67 15 l90 -1 -68 -15z m-158 -22
c16 -4 -21 -15 -120 -35 -79 -15 -213 -43 -296 -62 -133 -30 -170 -34 -285
-34 l-133 1 150 45 c126 38 234 60 430 87 49 7 228 6 254 -2z m-1252 -17 c-3
-3 -12 -4 -19 -1 -8 3 -5 6 6 6 11 1 17 -2 13 -5z m1826 -21 c-7 -2 -19 -2
-25 0 -7 3 -2 5 12 5 14 0 19 -2 13 -5z m-273 -39 c-124 -18 -259 -33 -300
-32 -103 1 -72 6 205 38 326 37 368 35 95 -6z m-1080 2 c0 -2 -49 -16 -110
-30 -91 -22 -128 -26 -222 -24 l-113 3 195 26 c198 27 250 32 250 25z m1625
-26 c-16 -4 -55 -7 -85 -7 l-55 0 45 7 c25 4 63 7 85 7 38 1 38 0 10 -7z
m-1920 -106 c-258 -42 -325 -40 -115 3 103 21 184 31 240 31 82 0 78 -1 -125
-34z m1460 31 c-57 -21 -1027 -106 -1041 -92 -2 2 23 11 57 21 67 18 149 27
489 52 124 9 227 18 229 20 2 2 65 4 140 3 75 0 132 -2 126 -4z m283 -2 c-10
-2 -26 -2 -35 0 -10 3 -2 5 17 5 19 0 27 -2 18 -5z m106 -78 c-46 -21 -113
-33 -399 -70 -98 -13 -354 -35 -395 -34 -49 1 92 32 400 88 191 35 211 37 345
38 l100 1 -51 -23z m-609 0 c-21 -8 -576 -86 -586 -83 -14 5 515 86 561 86 19
0 31 -1 25 -3z m-575 -41 c-53 -13 -619 -94 -653 -93 -23 1 -33 3 -22 5 11 3
70 18 130 35 83 22 152 33 285 43 171 13 290 17 260 10z m-65 -55 c-22 -4 -51
-8 -65 -7 -35 1 34 15 75 16 25 0 23 -2 -10 -9z m-112 -16 c-7 -2 -21 -2 -30
0 -10 3 -4 5 12 5 17 0 24 -2 18 -5z m-60 -10 c-7 -2 -21 -2 -30 0 -10 3 -4 5
12 5 17 0 24 -2 18 -5z m1421 -18 c-23 -7 -77 -16 -120 -18 l-79 -6 100 18
c119 22 156 24 99 6z m5 -49 c-2 -2 -69 -22 -149 -45 -124 -35 -198 -47 -505
-86 -198 -25 -369 -45 -380 -44 -34 1 221 58 375 84 124 21 206 32 495 69 22
3 60 9 85 14 50 10 86 14 79 8z m-169 -121 c-134 -19 -185 -24 -169 -15 16 9
162 27 219 27 19 0 -3 -5 -50 -12z m-793 -111 c-3 -3 -12 -4 -19 -1 -8 3 -5 6
6 6 11 1 17 -2 13 -5z m-38 -8 c-6 -6 -492 -103 -599 -120 -52 -8 -153 -17
-225 -20 -114 -4 -121 -4 -55 5 41 5 244 38 450 73 345 59 440 73 429 62z
m-634 -61 c-104 -18 -226 -36 -270 -39 -48 -3 16 10 160 33 132 22 254 39 270
39 17 0 -55 -15 -160 -33z m-192 18 c-7 -2 -21 -2 -30 0 -10 3 -4 5 12 5 17 0
24 -2 18 -5z m-176 -69 c-3 -3 -12 -4 -19 -1 -8 3 -5 6 6 6 11 1 17 -2 13 -5z
m1336 -31 c-7 -2 -21 -2 -30 0 -10 3 -4 5 12 5 17 0 24 -2 18 -5z m-80 -10
c-13 -2 -33 -2 -45 0 -13 2 -3 4 22 4 25 0 35 -2 23 -4z m470 -20 c-7 -2 -19
-2 -25 0 -7 3 -2 5 12 5 14 0 19 -2 13 -5z m-158 -19 c-66 -7 -205 -23 -310
-34 -104 -12 -356 -45 -558 -75 -301 -45 -391 -55 -490 -54 -170 1 -114 13
218 44 149 14 403 46 565 71 344 54 413 61 575 61 l120 0 -120 -13z m-1432
-111 c-7 -2 -21 -2 -30 0 -10 3 -4 5 12 5 17 0 24 -2 18 -5z m1155 -89 c-14
-13 -411 -63 -588 -74 -107 -6 -256 -15 -330 -20 -142 -10 -497 -14 -488 -5 5
5 449 78 575 94 74 9 840 14 831 5z m851 -18 c-16 -16 -335 -73 -346 -62 -10
10 131 46 212 54 113 12 139 13 134 8z m-489 -57 c-65 -23 -190 -42 -430 -64
-96 -8 -219 -20 -273 -25 -96 -10 -182 -12 -162 -5 19 8 562 86 685 99 69 7
150 14 180 14 l55 1 -55 -20z m-892 -106 c-10 -2 -26 -2 -35 0 -10 3 -2 5 17
5 19 0 27 -2 18 -5z m195 -80 c-7 -2 -21 -2 -30 0 -10 3 -4 5 12 5 17 0 24 -2
18 -5z m782 -82 c-24 -10 -212 -25 -204 -16 5 4 149 21 204 23 l20 1 -20 -8z
m-685 -21 c-28 -18 -170 -68 -159 -56 11 11 164 75 169 70 2 -3 -2 -9 -10 -14z
m369 16 c-20 -20 -389 -83 -389 -67 0 3 26 20 58 38 56 31 59 32 196 32 77 1
137 -1 135 -3z m656 -45 c-14 -13 -230 -78 -300 -90 -33 -6 -359 -51 -725
-101 -366 -49 -683 -93 -705 -96 -22 -4 -37 -4 -34 0 3 3 61 31 128 61 l123
55 293 40 c162 22 365 47 452 55 155 15 764 81 773 84 2 0 0 -3 -5 -8z m-588
-17 c-3 -3 -12 -4 -19 -1 -8 3 -5 6 6 6 11 1 17 -2 13 -5z m-1120 -201 c-4 -3
-42 -21 -84 -40 -67 -29 -91 -34 -183 -38 -58 -3 -99 -2 -92 1 12 5 331 80
356 83 5 0 6 -2 3 -6z m860 -9 c-3 -3 -12 -4 -19 -1 -8 3 -5 6 6 6 11 1 17 -2
13 -5z m-64 -11 c-7 -2 -21 -2 -30 0 -10 3 -4 5 12 5 17 0 24 -2 18 -5z m-75
-10 c-10 -2 -26 -2 -35 0 -10 3 -2 5 17 5 19 0 27 -2 18 -5z m-70 -10 c-10 -2
-26 -2 -35 0 -10 3 -2 5 17 5 19 0 27 -2 18 -5z m-70 -10 c-10 -2 -26 -2 -35
0 -10 3 -2 5 17 5 19 0 27 -2 18 -5z m-65 -10 c-7 -2 -21 -2 -30 0 -10 3 -4 5
12 5 17 0 24 -2 18 -5z m567 -53 c-91 -11 -222 -10 -190 0 14 4 77 8 140 7
103 0 108 -1 50 -7z m640 -26 c-29 -7 -259 -34 -277 -33 -45 3 160 37 222 37
39 0 63 -2 55 -4z m-1581 -18 c-12 -12 -456 -72 -465 -63 -4 4 76 18 301 51
91 14 172 20 164 12z m501 -2 c-34 -8 -404 -43 -408 -39 -3 3 1 5 9 5 8 1 75
9 149 19 113 16 299 27 250 15z m777 -20 c-3 -3 -12 -4 -19 -1 -8 3 -5 6 6 6
11 1 17 -2 13 -5z m-1254 -71 c-7 -2 -19 -2 -25 0 -7 3 -2 5 12 5 14 0 19 -2
13 -5z m639 -63 c-31 -14 -101 -26 -240 -40 -108 -11 -239 -25 -291 -31 -51
-6 -95 -9 -97 -6 -3 3 178 33 471 77 66 10 138 18 160 19 l40 1 -43 -20z
m-284 -87 c-10 -2 -26 -2 -35 0 -10 3 -2 5 17 5 19 0 27 -2 18 -5z m-91 -9
c-3 -3 -12 -4 -19 -1 -8 3 -5 6 6 6 11 1 17 -2 13 -5z m468 -14 c-33 -4 -85
-8 -115 -7 l-55 0 50 7 c28 4 79 7 115 7 l65 0 -60 -7z m-185 -80 c-257 -38
-485 -64 -640 -74 -70 -5 -72 -5 -30 6 75 18 790 106 865 106 53 0 4 -10 -195
-38z m-257 23 c-7 -2 -19 -2 -25 0 -7 3 -2 5 12 5 14 0 19 -2 13 -5z m592 -54
c-106 -25 -265 -52 -271 -47 -4 5 143 39 241 57 91 16 111 10 30 -10z m-560
-80 c-99 -25 -630 -101 -696 -98 -13 0 109 22 271 49 162 26 336 54 385 62
142 24 160 19 40 -13z m465 12 c-17 -10 -218 -42 -253 -40 -12 1 39 11 113 24
162 27 159 27 140 16z m-287 -48 c-7 -2 -21 -2 -30 0 -10 3 -4 5 12 5 17 0 24
-2 18 -5z m-806 -9 c-3 -3 -12 -4 -19 -1 -8 3 -5 6 6 6 11 1 17 -2 13 -5z
m746 -1 c-7 -2 -21 -2 -30 0 -10 3 -4 5 12 5 17 0 24 -2 18 -5z m-70 -10 c-7
-2 -21 -2 -30 0 -10 3 -4 5 12 5 17 0 24 -2 18 -5z m-66 -9 c-3 -3 -12 -4 -19
-1 -8 3 -5 6 6 6 11 1 17 -2 13 -5z m-714 -41 c-7 -2 -19 -2 -25 0 -7 3 -2 5
12 5 14 0 19 -2 13 -5z m227 -234 c-14 -6 -59 -12 -100 -14 l-75 -4 85 13
c106 17 121 17 90 5z m743 -126 c-7 -2 -19 -2 -25 0 -7 3 -2 5 12 5 14 0 19
-2 13 -5z"/>
<path d="M3630 8130 c-115 -20 -550 -81 -679 -95 -80 -8 -146 -17 -148 -19 -2
-2 22 -23 54 -47 l58 -44 235 -5 c227 -5 234 -6 200 -21 -19 -9 -93 -25 -165
-34 -71 -10 -135 -21 -142 -24 -7 -4 22 -32 69 -70 l82 -64 127 9 c71 5 125 6
121 3 -10 -10 -132 -29 -183 -29 l-44 0 25 -20 c22 -17 38 -18 129 -14 57 2
107 6 110 9 3 3 13 26 22 50 l17 45 -56 1 -57 1 60 10 c53 8 74 20 75 39 0 3
-62 -2 -137 -12 -76 -10 -139 -16 -141 -15 -6 6 131 38 209 49 l84 12 22 45
c28 57 28 58 -4 63 -27 3 -27 4 13 22 33 16 48 33 77 86 21 37 37 70 37 73 0
7 -9 6 -70 -4z m-62 -107 c-10 -2 -28 -2 -40 0 -13 2 -5 4 17 4 22 1 32 -1 23
-4z m-88 -58 c-20 -11 -75 -14 -259 -15 -129 0 -232 3 -228 6 7 7 248 20 407
22 96 1 103 0 80 -13z m17 -51 c-3 -3 -12 -4 -19 -1 -8 3 -5 6 6 6 11 1 17 -2
13 -5z"/>
<path d="M3397 7610 c-59 -10 -65 -15 -39 -29 28 -15 96 0 100 22 2 9 0 16 -5
16 -4 -1 -30 -5 -56 -9z"/>
<path d="M3416 7550 c-17 -6 -18 -7 -3 -13 9 -3 19 -2 23 4 9 15 2 18 -20 9z"/>
<path d="M6697 7463 c-4 -3 -7 -17 -7 -29 0 -15 7 -24 23 -27 l22 -4 -22 -2
c-20 -1 -23 -7 -23 -41 l0 -40 1663 -2 1662 -3 -1280 -7 c-704 -4 -1452 -10
-1663 -13 -352 -6 -383 -8 -380 -23 3 -16 51 -17 608 -22 l605 -5 -607 -3
-607 -2 1 -45 1 -45 186 -1 c102 -1 200 -5 216 -9 17 -5 -64 -8 -188 -7 l-217
2 0 -77 0 -76 398 -5 397 -5 260 -40 260 -40 -657 -1 -658 -1 0 -80 0 -80 373
-1 372 -1 -175 -24 c-131 -17 -224 -23 -372 -24 -166 0 -198 -2 -198 -15 0 -7
8 -19 18 -24 16 -10 16 -10 0 -11 -11 0 -18 -8 -18 -20 0 -20 7 -20 333 -21
295 -2 315 -3 182 -10 -210 -11 -235 -15 -235 -41 0 -20 -3 -21 -126 -14 -70
4 -133 10 -140 13 -10 3 -14 -3 -14 -21 0 -32 -112 -29 1035 -27 607 1 875 -1
865 -8 -10 -7 -327 -11 -958 -11 -893 0 -943 -1 -940 -17 3 -17 50 -18 820
-18 449 0 814 -3 811 -7 -2 -5 -371 -8 -819 -8 -807 0 -814 0 -814 -20 0 -20
7 -20 688 -21 602 -1 677 -3 607 -14 -59 -10 -238 -14 -687 -14 l-608 -1 0
-90 0 -90 253 0 c138 0 331 -5 427 -10 96 -5 346 -19 554 -30 209 -11 382 -23
385 -25 2 -3 -361 -5 -808 -5 -768 0 -812 -1 -809 -17 3 -15 17 -19 78 -24
l75 -5 -77 -2 -78 -2 0 -95 0 -95 78 0 c67 0 225 -15 387 -37 l50 -7 -35 -9
c-19 -5 -135 -9 -257 -8 l-222 2 1 -51 c0 -47 1 -50 26 -50 15 0 34 -5 42 -11
11 -8 4 -9 -27 -6 -43 5 -43 5 -43 -28 0 -33 0 -34 58 -40 83 -9 86 -13 10
-14 l-68 -1 0 -58 0 -59 120 -7 c114 -6 247 -19 540 -52 74 -8 242 -21 373
-29 132 -7 241 -16 245 -19 3 -3 -199 -6 -449 -6 l-455 0 -169 30 c-196 34
-205 35 -205 15 0 -9 14 -17 38 -21 103 -18 109 -22 34 -23 l-73 -1 3 -42 3
-43 275 -3 c256 -4 271 -5 220 -18 -38 -9 -125 -13 -279 -14 -123 0 -222 -2
-219 -5 3 -3 707 -7 1564 -8 l1559 -2 -3 -50 c-1 -27 -16 -101 -32 -164 -17
-63 -30 -116 -30 -117 0 -2 96 -4 214 -4 170 0 267 -6 477 -29 145 -17 343
-38 439 -47 96 -9 178 -20 182 -23 4 -3 -181 -5 -410 -3 -452 3 -410 -1 -835
74 -58 10 -70 10 -77 -2 -16 -25 -11 -38 18 -44 15 -3 70 -13 122 -23 l95 -18
-65 -6 c-36 -4 -92 -7 -126 -8 -57 -1 -108 -21 -92 -36 3 -4 105 1 225 9 l218
16 174 -29 c95 -17 176 -33 179 -36 3 -3 -179 -5 -405 -5 -365 0 -412 -2 -417
-16 -3 -9 -6 -18 -6 -21 0 -3 123 -2 273 2 149 4 269 4 266 0 -17 -17 -209
-35 -375 -35 -152 0 -183 -2 -188 -15 -4 -12 3 -15 32 -16 l37 -1 -41 -10
c-33 -8 -45 -18 -58 -44 l-16 -34 113 -1 112 -2 -108 -8 c-119 -8 -137 -12
-137 -31 0 -10 45 -13 207 -11 116 0 195 -2 178 -7 -16 -4 -113 -8 -215 -9
l-185 -1 -23 -41 c-13 -22 -21 -43 -19 -46 3 -2 40 1 82 7 42 6 79 10 81 7 7
-6 -80 -26 -131 -30 -22 -2 -46 -6 -53 -11 -31 -19 -5 -26 95 -26 98 0 241
-13 658 -60 216 -24 128 -24 -195 0 -558 42 -581 43 -593 31 -21 -21 -54 -18
668 -72 11 -1 -2 -5 -30 -9 -81 -13 -277 -11 -480 5 -164 13 -191 13 -204 1
-15 -15 -15 -15 79 -29 14 -3 -5 -5 -41 -6 -59 -1 -69 -4 -83 -26 l-16 -25
222 0 c273 0 785 -18 853 -29 31 -5 -174 -9 -527 -10 l-576 -1 -61 -72 c-33
-40 -58 -74 -56 -76 2 -3 44 -12 92 -22 l88 -18 -111 -1 c-86 -1 -114 -4 -124
-16 -11 -13 12 -15 201 -15 171 0 242 -4 357 -22 78 -12 142 -24 142 -27 0
-13 -527 0 -630 15 l-104 15 -45 -46 -46 -45 260 -2 260 -2 -205 -6 c-185 -4
-205 -7 -208 -22 -3 -17 19 -18 356 -18 l358 0 284 -40 c156 -23 286 -43 289
-45 2 -3 -292 -5 -655 -5 -596 1 -668 3 -757 19 l-99 19 -23 -22 c-14 -11 -43
-34 -66 -51 l-41 -30 299 -6 c230 -4 329 -10 433 -27 74 -11 187 -24 250 -29
84 -6 -45 -9 -479 -13 l-593 -5 72 -57 73 -58 1332 0 c1206 0 1333 2 1339 16
3 9 6 18 6 20 0 2 -600 5 -1332 7 l-1333 2 1337 3 1336 2 21 36 c12 20 21 37
19 39 -2 1 -43 8 -93 16 l-90 14 104 5 c64 3 106 9 108 16 3 8 -72 13 -264 17
-164 4 -293 11 -333 19 -61 13 -45 14 279 21 344 6 360 8 361 41 0 4 -15 6
-32 3 -18 -4 -226 -9 -463 -13 l-430 -6 -270 41 c-148 23 -274 43 -280 45 -5
3 96 5 225 5 181 1 275 -4 410 -20 241 -30 854 -40 863 -15 6 14 -21 16 -266
17 -150 1 -297 4 -327 9 -33 4 77 8 276 9 293 1 333 3 338 17 3 9 6 17 6 20 0
2 -255 5 -567 7 l-568 2 572 3 c554 2 573 3 583 21 5 11 10 24 10 30 0 8 -196
11 -649 11 -523 0 -655 3 -681 14 l-32 13 33 8 c19 5 332 11 697 14 l664 6 37
95 c21 52 35 99 30 104 -5 5 -155 4 -371 -3 -200 -6 -401 -10 -448 -9 -103 2
130 12 544 23 l288 8 19 45 c39 91 41 88 -48 96 -43 3 -91 10 -108 15 -28 8
-27 9 30 20 120 24 185 51 196 80 19 49 22 79 8 78 -8 0 -250 1 -539 3 -478 3
-505 4 -300 11 673 24 827 28 848 23 12 -4 22 -2 22 4 0 6 3 17 6 26 5 13 -3
16 -47 17 -100 2 -121 17 -26 18 70 1 87 4 87 16 0 13 -26 15 -172 15 -142 0
-282 13 -348 31 -21 6 142 19 323 25 l217 7 7 26 c3 14 14 58 23 96 10 39 16
73 13 78 -2 4 -49 7 -103 7 -86 0 -256 17 -248 25 7 7 230 35 297 37 89 4 75
-26 126 273 42 252 42 255 13 255 -13 0 -30 5 -38 10 -11 7 -4 10 26 10 l42 0
7 78 c3 42 9 87 12 100 4 19 1 22 -22 22 -15 0 -24 4 -20 10 3 6 15 10 26 10
13 0 19 7 19 24 0 23 -3 24 -92 30 -158 9 -711 36 -740 36 -16 0 -28 3 -28 8
0 4 195 7 432 7 404 0 433 1 436 18 3 16 -35 17 -680 18 -376 1 -710 5 -743 9
-33 4 274 8 683 9 652 1 742 3 742 16 0 13 -109 15 -917 15 -726 0 -955 3
-1092 15 -96 8 -177 17 -179 20 -3 3 491 5 1097 5 1045 0 1102 1 1099 18 -3
16 -75 17 -1303 22 l-1300 5 1303 3 1302 2 1 60 c1 33 2 81 2 107 l1 47 -49
-2 c-28 -2 -99 -7 -160 -12 -117 -10 -2412 -14 -2403 -4 4 3 89 17 190 32
l183 26 1120 6 1120 5 3 88 3 87 -398 1 c-247 1 -373 5 -331 9 36 5 214 8 395
7 l328 0 0 24 0 24 -210 5 -210 6 206 2 c113 1 208 5 212 8 3 3 3 12 0 20 -4
10 -27 15 -82 16 l-76 2 78 5 c42 3 77 9 77 14 0 4 0 20 0 37 l0 30 -407 3
-408 2 408 3 407 2 0 24 c0 13 -3 44 -6 70 l-7 46 -788 0 c-519 0 -789 3 -789
10 0 7 270 10 790 10 l790 0 0 33 c0 17 -3 42 -6 54 l-6 23 -987 3 -986 2 988
3 c980 2 987 2 987 22 0 20 -7 20 -747 21 l-748 1 170 24 c93 13 210 31 260
41 76 14 168 17 573 21 l483 3 -3 22 c-3 22 -4 22 -288 27 l-285 5 283 3 282
2 0 34 c0 19 -2 40 -5 48 -4 11 -340 13 -1958 12 -1073 -1 -1927 2 -1897 6 30
5 909 8 1953 9 1802 1 1898 2 1895 19 -3 16 -88 17 -1613 17 -886 -1 -1599 2
-1585 6 14 4 738 7 1609 8 l1584 1 -7 46 c-3 25 -8 49 -11 54 -2 4 -116 11
-252 15 -138 4 -239 11 -227 15 11 5 120 11 243 15 122 4 223 11 226 14 2 4 0
13 -4 20 -7 10 -50 10 -237 -1 -136 -8 -420 -13 -699 -12 -407 0 -495 3 -655
21 l-185 21 888 1 c488 0 887 3 887 5 0 3 -4 16 -10 30 l-10 26 -2688 0
c-1479 0 -2692 -3 -2695 -7z m2784 -73 c85 -11 159 -22 164 -24 6 -3 -651 -4
-1460 -4 -915 0 -1455 4 -1429 9 104 24 639 36 1590 38 933 1 989 0 1135 -19z
m632 0 c122 -11 229 -22 237 -24 8 -2 -82 -4 -200 -4 -176 -1 -243 3 -370 22
l-155 24 133 1 c73 0 233 -8 355 -19z m665 -77 c-76 -2 -200 -2 -275 0 -76 1
-14 3 137 3 151 0 213 -2 138 -3z m-2261 -119 c-8 -8 -1382 -11 -1492 -3 -44
3 275 6 709 7 434 1 786 -1 783 -4z m-939 -51 c-42 -2 -114 -2 -160 0 -46 1
-11 3 77 3 88 0 125 -2 83 -3z m3667 -103 c72 -3 -257 -6 -730 -6 -473 0 -734
3 -580 6 363 7 1143 7 1310 0z m-2590 -105 l290 -40 -325 -3 -325 -3 -265 36
c-146 20 -274 41 -285 45 -12 6 104 9 300 7 311 -2 328 -3 610 -42z m2311 38
c-3 -4 -66 -15 -139 -25 -136 -18 -374 -29 -1097 -48 -397 -11 -423 -10 -605
10 -257 28 -454 55 -462 63 -3 4 515 7 1152 7 637 0 1155 -3 1151 -7z m-1761
-252 c11 -5 -170 -6 -402 -4 -232 3 -434 2 -448 -1 -14 -4 -25 -13 -25 -21 0
-13 -61 -15 -467 -14 -258 1 -459 3 -448 6 11 2 83 12 160 22 125 17 218 19
875 19 404 0 744 -3 755 -7z m1300 -1 c-25 -11 -972 -11 -1040 0 -27 4 200 8
505 8 318 0 546 -3 535 -8z m-3272 -87 c-46 -2 -120 -2 -165 0 -46 1 -9 3 82
3 91 0 128 -2 83 -3z m2145 -70 c-186 -2 -490 -2 -675 0 -186 1 -34 2 337 2
371 0 523 -1 338 -2z m994 0 c-73 -2 -190 -2 -260 0 -70 1 -10 3 133 3 143 0
200 -2 127 -3z m-207 -83 c-11 -5 -319 -8 -685 -7 -366 0 -631 3 -590 7 115
10 1298 10 1275 0z m1650 0 c-4 -7 -251 -9 -713 -8 -389 0 -687 4 -662 8 74
11 1382 11 1375 0z m-2025 -50 c-9 -6 -268 -9 -655 -7 l-640 2 630 5 c347 3
641 6 655 7 19 2 21 0 10 -7z m1705 0 c-4 -7 -255 -9 -728 -8 l-722 3 720 5
c396 3 724 6 728 8 5 1 5 -2 2 -8z m-1335 -66 c-265 -14 -2018 -17 -1885 -2
44 4 334 6 645 3 311 -3 603 -1 650 4 47 4 249 8 450 8 l365 0 -225 -13z m840
-4 c-9 -6 -82 -9 -175 -8 -152 2 -154 2 -55 7 210 12 246 12 230 1z m-1480
-215 c-237 -45 -353 -50 -660 -32 -151 10 -367 22 -480 28 -113 6 -261 14
-330 18 -72 5 236 8 735 9 l860 0 -125 -23z m-620 -86 c-55 -9 -1085 -9 -1230
1 -58 3 206 7 585 7 380 0 670 -3 645 -8z m2420 0 c-57 -10 -1766 -10 -1840 1
-30 4 382 7 915 7 534 0 950 -3 925 -8z m578 -6 c-16 -2 -40 -2 -55 0 -16 2
-3 4 27 4 30 0 43 -2 28 -4z m-4330 -150 c-141 -2 -375 -2 -520 0 -145 1 -29
2 257 2 286 0 404 -1 263 -2z m989 0 c-20 -2 -52 -2 -70 0 -17 2 0 4 38 4 39
0 53 -2 32 -4z m341 0 c-38 -2 -98 -2 -135 0 -38 2 -7 3 67 3 74 0 105 -1 68
-3z m-1438 -53 c-31 -10 -135 -10 -175 0 -19 5 12 8 85 8 71 0 106 -3 90 -8z
m815 -1 c-27 -5 -142 -20 -255 -33 -189 -21 -215 -22 -338 -11 -73 7 -135 15
-138 18 -3 2 44 11 103 20 121 16 723 22 628 6z m970 -29 c335 -21 558 -30
775 -31 168 -1 316 -5 330 -9 14 -4 -122 -8 -302 -9 -311 -1 -366 -6 -321 -29
10 -5 271 -9 583 -9 449 -1 605 -4 755 -18 105 -9 201 -21 215 -25 14 -5 -505
-8 -1155 -7 l-1180 2 -318 34 c-174 19 -314 38 -310 42 5 3 45 21 89 39 78 30
154 41 334 48 19 1 247 -12 505 -28z m515 10 c30 -6 8 -7 -65 -3 -60 3 -112 7
-114 9 -8 7 134 2 179 -6z m-1411 -14 c-2 -2 -33 -16 -69 -31 -61 -26 -70 -27
-168 -20 -57 4 -101 9 -98 12 3 3 72 14 153 23 167 20 188 22 182 16z m-890
-32 c2 -2 -34 -4 -80 -4 -59 0 -80 3 -69 10 13 9 138 4 149 -6z m-219 -35
c101 -1 126 -3 100 -10 -48 -12 -211 -14 -290 -4 -64 9 -65 9 -25 16 22 4 49
5 60 3 11 -2 81 -4 155 -5z m768 -36 c61 -9 112 -21 112 -26 0 -11 -591 -1
-680 11 l-55 8 55 8 c30 4 84 11 120 16 87 12 309 3 448 -17z m-1048 -2 c33
-6 37 -9 15 -9 -16 0 -50 3 -75 7 -33 6 -37 9 -15 9 17 0 50 -3 75 -7z m1535
-22 c22 -10 -86 -2 -150 11 -26 5 -10 6 45 3 47 -3 94 -10 105 -14z m-927 -46
c-32 -2 -84 -2 -115 0 -32 2 -6 3 57 3 63 0 89 -1 58 -3z m500 0 c-10 -2 -28
-2 -40 0 -13 2 -5 4 17 4 22 1 32 -1 23 -4z m515 -14 c81 -12 145 -24 143 -27
-4 -4 -337 12 -518 25 -48 3 -85 10 -82 14 11 18 305 10 457 -12z m567 -4
l185 -23 -170 0 c-132 0 -203 5 -315 23 l-145 23 130 0 c77 0 206 -9 315 -23z
m2839 21 c-16 -16 -295 -29 -669 -32 -239 -2 -678 -7 -975 -10 -512 -6 -551
-5 -760 16 -121 12 -222 24 -224 26 -2 2 589 4 1314 4 725 0 1316 -2 1314 -4z
m-4590 -42 c8 -7 -264 -2 -319 6 -32 5 21 6 130 3 102 -3 187 -7 189 -9z m586
-88 c11 -2 -243 -3 -565 -3 -322 -1 -598 2 -615 6 -29 6 1140 3 1180 -3z
m1945 -17 c15 -5 -23 -6 -95 -2 -66 3 -122 7 -124 9 -9 8 195 2 219 -7z
m-1922 -56 c3 -31 2 -32 -25 -28 -15 3 -122 9 -238 15 -225 12 -462 33 -472
44 -4 3 160 5 363 4 l369 -3 3 -32z m567 27 c4 -6 54 -10 118 -10 119 1 487
-30 487 -40 0 -4 -149 -13 -331 -20 -269 -11 -373 -11 -562 -1 -152 9 -234 17
-239 24 -4 7 -8 22 -8 35 l0 22 264 0 c166 0 267 -4 271 -10z m1110 -20 c-67
-11 -340 -11 -390 -1 -25 6 48 9 200 9 151 -1 222 -4 190 -8z m240 -30 c-28
-12 -78 -12 -70 0 3 6 25 10 48 9 33 0 38 -2 22 -9z m1095 -13 c92 -14 86 -14
-245 -15 -252 -1 -367 2 -444 13 -57 8 -107 18 -110 21 -12 12 702 -5 799 -19z
m830 -6 c59 -11 -417 -12 -485 -1 -32 4 40 8 195 8 135 0 265 -3 290 -7z
m-2323 -8 c-20 -2 -52 -2 -70 0 -17 2 0 4 38 4 39 0 53 -2 32 -4z m-1733 -123
c-61 -4 -130 -4 -155 0 -27 5 15 7 111 7 l155 0 -111 -7z m-324 -10 c10 -7
-12 -9 -70 -9 -60 1 -76 4 -55 9 44 11 108 11 125 0z m3674 -390 c110 -17 215
-34 231 -37 29 -7 28 -7 -15 -14 -28 -4 -169 7 -365 27 -466 48 -477 51 -246
53 169 1 219 -3 395 -29z m371 18 c235 -12 257 -21 85 -34 -63 -4 -123 0 -230
15 -230 35 -208 38 145 19z m55 -88 c0 -12 -17 -12 -45 0 -17 7 -15 9 13 9 17
1 32 -3 32 -9z m-695 -51 c-51 -10 -206 -10 -265 0 -31 6 11 9 130 9 118 0
162 -3 135 -9z m880 -13 c287 -26 273 -34 -85 -43 -227 -5 -500 5 -660 26
l-55 7 105 16 c155 23 411 21 695 -6z m-942 -43 c-7 -2 -21 -2 -30 0 -10 3 -4
5 12 5 17 0 24 -2 18 -5z m37 -56 c61 -14 45 -15 -255 -15 -176 0 -313 2 -305
4 124 34 428 39 560 11z m420 11 c-35 -16 -250 -16 -275 -1 -16 10 10 12 140
12 124 0 154 -3 135 -11z m395 -18 c18 -4 -32 -8 -120 -8 -90 1 -136 4 -115 8
46 10 197 10 235 0z m-927 -45 c-3 -3 -72 -15 -154 -27 -126 -18 -208 -21
-534 -24 -212 -2 -376 0 -365 5 11 4 83 16 160 25 77 9 149 19 160 20 36 6
739 6 733 1z m396 -4 c6 -9 -302 -37 -311 -27 -4 3 7 6 23 7 16 0 76 6 134 14
133 16 148 17 154 6z m-331 -38 c-7 -2 -19 -2 -25 0 -7 3 -2 5 12 5 14 0 19
-2 13 -5z m557 -3 c10 -7 -22 -9 -100 -9 -74 1 -104 4 -85 9 44 11 168 11 185
0z m270 -50 c14 -4 -227 -8 -535 -7 -308 0 -535 3 -505 7 78 10 1010 10 1040
0z m-805 -50 c-144 -10 -672 -9 -620 0 22 4 195 7 385 7 233 0 309 -3 235 -7z
m238 -175 c149 -14 288 -28 307 -32 l35 -6 -35 -9 c-62 -16 -402 -21 -553 -9
-163 14 -705 70 -727 75 -8 2 146 4 343 5 308 1 395 -2 630 -24z m692 19 c-5
-2 -58 -12 -116 -23 -83 -15 -117 -17 -160 -9 -30 5 -99 16 -154 23 -99 13
-96 13 170 13 149 0 266 -1 260 -4z m-1245 -123 c32 -6 4 -9 -100 -9 -86 0
-133 3 -115 8 40 10 159 10 215 1z m-890 -271 l135 -19 -105 4 c-106 5 -271
32 -200 33 19 1 96 -8 170 -18z m1015 -10 c-79 -10 -591 -10 -630 0 -16 4 132
8 330 7 206 0 334 -3 300 -7z m-545 -50 c49 -7 77 -7 84 0 15 15 42 12 56 -5
7 -8 27 -17 46 -21 64 -12 34 -19 -68 -16 -110 3 -323 29 -348 43 -21 12 137
11 230 -1z m83 -107 c-73 -2 -193 -2 -265 0 -73 1 -14 3 132 3 146 0 205 -2
133 -3z m607 -181 c37 -11 -293 -8 -830 8 -201 6 -145 7 270 5 339 -1 537 -6
560 -13z m-180 -43 c363 -7 543 -15 610 -25 52 -9 97 -18 100 -21 21 -22
-1697 40 -1719 62 -3 4 107 4 244 1 138 -4 482 -11 765 -17z"/>
<path d="M3365 5203 c-25 -7 -72 -43 -56 -43 44 0 151 25 148 34 -4 12 -60 17
-92 9z"/>
<path d="M3366 5153 c-49 -7 -101 -21 -115 -30 -24 -15 -24 -17 -6 -24 17 -7
17 -8 -5 -6 -24 1 -85 -31 -77 -40 3 -2 64 3 136 12 72 9 142 15 154 13 12 -2
-50 -12 -138 -22 -88 -9 -168 -21 -177 -24 -9 -4 -97 -70 -195 -147 l-178
-140 40 -5 40 -6 -55 -7 c-33 -5 -71 -19 -94 -35 l-39 -27 184 -6 c101 -4 197
-7 214 -8 19 -1 26 -4 19 -11 -10 -10 -199 -40 -415 -65 -104 -12 -138 -20
-163 -38 l-31 -22 75 -5 75 -5 -92 -9 -92 -8 -131 -102 c-72 -55 -124 -102
-116 -104 8 -2 124 11 258 28 251 33 360 44 343 35 -5 -2 -140 -38 -300 -80
-185 -48 -320 -77 -373 -82 -80 -6 -84 -7 -147 -57 -35 -27 -63 -52 -61 -54 3
-3 90 11 651 102 116 19 365 60 555 91 503 81 602 95 696 95 l85 0 -31 45
c-17 25 -39 45 -48 45 -12 0 -13 3 -5 8 7 4 9 13 4 21 -7 10 -46 9 -215 -8
-113 -12 -216 -21 -228 -20 -22 1 -22 1 2 9 14 5 107 30 207 56 l182 47 -25
41 c-13 23 -28 46 -32 52 -5 8 -24 9 -62 3 -30 -4 -75 -7 -100 -7 -40 0 -38 2
20 10 128 17 129 18 123 34 -7 18 1 19 -331 -27 -250 -34 -232 -33 -232 -14 0
23 -43 35 -133 36 -82 2 -81 2 48 15 289 28 375 34 493 34 67 0 122 3 122 8
-1 31 -20 35 -171 34 l-154 0 143 20 c78 12 142 24 142 27 -1 27 -24 27 -250
-6 -142 -21 -286 -36 -365 -38 l-130 -4 110 14 c61 8 209 26 330 40 121 15
234 30 252 33 l31 7 -28 60 -28 61 -79 -7 c-43 -4 -100 -7 -128 -7 l-50 1 60
7 c33 4 88 8 122 9 34 1 64 4 66 9 3 4 -6 30 -19 59 l-24 52 -68 -4 -67 -4 63
11 c39 7 62 16 62 24 0 21 -10 21 -104 7z m-38 -50 c-10 -2 -28 -2 -40 0 -13
2 -5 4 17 4 22 1 32 -1 23 -4z m-65 -130 c-7 -2 -21 -2 -30 0 -10 3 -4 5 12 5
17 0 24 -2 18 -5z m-20 -110 c-7 -2 -19 -2 -25 0 -7 3 -2 5 12 5 14 0 19 -2
13 -5z m230 -220 c-7 -2 -19 -2 -25 0 -7 3 -2 5 12 5 14 0 19 -2 13 -5z m116
-87 c-2 -2 -119 -34 -260 -70 l-256 -66 -228 -10 c-126 -6 -230 -8 -233 -6 -9
10 90 29 421 81 188 30 371 58 407 63 70 10 156 15 149 8z m106 -156 c-80 -10
-339 -10 -300 0 17 4 104 8 195 7 120 0 149 -2 105 -7z m-1225 -51 c-25 -4
-58 -7 -75 -7 -29 0 -29 0 -5 8 14 4 48 8 75 8 l50 -1 -45 -8z m915 6 c-5 -3
-62 -11 -125 -19 -63 -8 -247 -33 -409 -55 -162 -23 -296 -39 -298 -37 -2 1
92 28 209 59 l213 55 210 0 c116 0 206 -1 200 -3z"/>
<path d="M1795 4254 c-187 -29 -357 -53 -377 -54 -39 0 -46 -8 -27 -27 13 -13
18 -13 389 43 318 47 361 56 380 79 17 20 34 22 -365 -41z"/>
<path d="M3650 4244 c-118 -13 -343 -37 -500 -54 -157 -17 -404 -44 -550 -60
-146 -16 -364 -38 -485 -50 -202 -19 -285 -37 -285 -59 0 -6 377 31 945 94
132 14 269 28 305 30 l65 4 -55 -9 c-47 -8 -957 -126 -1230 -160 l-95 -12 -92
-70 c-115 -87 -118 -91 -103 -118 10 -18 18 -21 48 -16 53 8 478 19 472 13 -3
-3 -100 -22 -215 -42 -244 -42 -257 -45 -246 -63 6 -11 60 -4 277 33 328 56
523 75 759 74 202 -2 219 3 -195 -49 -129 -16 -305 -39 -390 -50 -85 -11 -216
-25 -290 -31 -74 -6 -136 -12 -138 -14 -2 -2 7 -22 20 -45 l23 -42 50 6 c109
13 343 27 390 24 38 -2 -7 -12 -177 -38 -154 -23 -228 -38 -228 -47 0 -26 -43
-30 514 57 253 39 263 40 505 39 l246 -1 -270 -28 c-148 -15 -418 -42 -600
-59 -181 -18 -340 -34 -353 -37 l-23 -5 22 -37 c12 -20 23 -38 24 -39 0 -1 52
6 115 17 108 17 201 26 523 50 303 22 305 17 7 -20 -298 -37 -613 -79 -617
-84 -1 -1 2 -8 7 -16 7 -12 38 -10 207 13 109 15 468 59 798 97 330 38 637 75
683 81 46 6 85 9 88 7 6 -6 76 4 -883 -123 -436 -58 -803 -105 -815 -105 -42
0 -52 -14 -33 -44 l17 -26 466 0 c256 0 463 -3 460 -6 -15 -14 -629 -84 -740
-84 -65 0 -118 -3 -118 -7 1 -5 10 -19 21 -32 19 -23 22 -24 147 -18 l127 6
-115 -17 c-63 -9 -115 -19 -114 -22 0 -3 13 -25 28 -49 l28 -44 82 7 c44 3
126 8 181 11 l100 4 -140 -20 c-77 -10 -153 -23 -169 -27 -28 -7 -28 -8 -12
-25 10 -9 29 -18 44 -18 25 -2 25 -2 4 -6 -29 -6 -23 -27 8 -31 16 -3 19 -6
11 -11 -13 -8 46 -87 128 -173 l35 -38 146 -1 145 -1 -65 -14 c-36 -7 -96 -13
-133 -14 l-69 0 32 -40 32 -40 66 5 c37 3 147 12 245 20 98 8 267 15 375 14
l197 -1 -110 -20 c-87 -15 -178 -21 -433 -26 l-322 -7 97 -102 98 -101 105 18
c193 33 680 51 1270 48 l535 -3 -300 -40 -300 -40 -642 0 c-354 0 -643 -3
-643 -7 0 -24 64 -28 502 -29 288 -1 450 -4 428 -10 -49 -12 -464 -29 -724
-29 -113 0 -127 -2 -116 -15 10 -12 45 -15 184 -16 l171 -2 -142 -20 c-79 -11
-143 -23 -143 -28 0 -22 69 -18 356 20 170 23 315 41 323 41 49 0 -29 -13
-289 -49 -162 -23 -306 -44 -320 -47 l-25 -6 35 -30 c19 -16 54 -45 77 -64
l42 -35 148 21 c118 18 205 23 426 25 154 2 275 0 270 -5 -19 -16 -399 -61
-586 -68 -108 -5 -199 -10 -202 -13 -2 -3 35 -36 85 -73 l89 -68 101 11 c55 6
135 10 178 10 l77 -2 -85 -13 c-47 -7 -110 -13 -140 -14 -116 -4 -115 -7 5
-90 60 -41 123 -84 141 -95 17 -11 65 -41 105 -66 l74 -47 350 14 c461 18
1548 16 1410 -3 -49 -7 -396 -49 -769 -93 -374 -44 -682 -82 -684 -85 -2 -2
34 -23 79 -46 l84 -43 130 1 130 1 -95 -13 c-52 -7 -97 -14 -100 -14 -3 -1 24
-15 60 -32 l65 -31 215 26 c406 49 746 68 1115 64 l289 -3 -269 -48 -270 -48
-520 1 c-286 0 -515 -4 -510 -9 6 -4 52 -24 103 -45 92 -36 93 -36 244 -36 83
0 148 -3 144 -7 -4 -4 -57 -10 -119 -13 l-112 -5 95 -34 c91 -32 101 -33 235
-33 l140 1 -85 -18 -85 -17 57 -17 c31 -9 70 -17 87 -17 30 0 246 31 486 70
98 16 167 20 380 19 143 0 256 -2 250 -5 -14 -5 -774 -121 -853 -130 -69 -7
-72 -11 -15 -25 122 -30 132 -30 591 2 249 16 461 29 470 27 9 -2 -86 -19
-213 -38 -160 -24 -283 -36 -405 -40 -96 -3 -171 -7 -167 -8 5 -1 65 -11 135
-22 236 -36 374 -48 517 -44 79 2 127 0 110 -5 -60 -15 126 -24 385 -18 413
11 761 47 1130 119 146 29 160 33 120 38 -40 5 -33 7 60 19 58 7 135 19 171
26 73 15 213 55 207 59 -1 2 -43 -3 -93 -10 -49 -7 -272 -38 -495 -68 -352
-48 -449 -57 -740 -71 -543 -27 -535 -25 302 85 647 85 880 110 1044 110 117
0 151 4 204 22 51 17 60 23 45 29 -14 5 -8 8 23 8 28 1 89 20 170 53 142 57
163 69 100 57 -24 -4 -65 -8 -93 -7 l-50 0 55 9 c133 21 219 42 273 66 31 14
56 28 54 30 -2 2 -55 -8 -118 -21 -63 -14 -213 -39 -334 -56 -213 -30 -230
-30 -530 -28 l-310 3 255 32 c140 18 359 46 485 63 184 24 268 30 420 30 146
1 196 4 215 15 24 14 23 14 -29 15 -30 0 -52 2 -49 5 3 3 46 12 95 19 49 7
102 21 116 31 31 20 35 29 9 21 -30 -9 -363 -48 -368 -44 -2 3 101 22 230 43
l235 38 136 84 c75 47 134 87 132 90 -3 2 -50 -2 -105 -11 -56 -9 -153 -16
-223 -15 l-124 1 130 23 c84 16 171 24 246 24 l117 1 118 85 c66 47 133 97
149 110 l30 25 -249 0 c-137 0 -247 2 -244 6 5 5 68 11 446 43 l124 11 59 52
c33 28 58 53 56 55 -2 2 -80 -6 -173 -17 -93 -11 -189 -19 -214 -19 -25 1 56
13 180 28 211 26 270 39 270 61 0 13 -55 50 -74 50 -9 0 -15 5 -14 11 11 44
-114 33 -957 -82 -310 -42 -541 -69 -590 -68 l-80 1 150 24 c83 13 254 40 380
59 127 20 343 54 480 76 138 22 310 46 383 53 73 8 136 16 138 19 3 3 -10 15
-28 28 -18 13 -35 26 -38 29 -3 3 -32 26 -65 51 l-60 46 -115 -3 c-63 -1 -104
-1 -90 2 56 10 150 37 150 43 -1 3 -18 18 -38 32 -38 26 -39 26 -118 13 -114
-19 -126 -16 -64 12 30 14 63 27 73 31 9 3 17 8 16 12 0 3 -31 30 -69 58 -66
51 -71 53 -131 53 -68 0 -72 16 -6 22 l38 3 -63 48 -63 48 -85 -5 c-53 -3 -74
-2 -55 3 17 5 47 9 68 10 38 1 46 11 25 29 -9 7 -55 3 -153 -14 -123 -21 -348
-34 -333 -19 2 3 92 16 199 30 107 14 205 28 218 31 24 5 24 5 -10 34 l-34 29
-420 2 c-383 1 -413 3 -340 14 53 9 187 14 394 14 277 1 312 3 301 16 -9 11
-35 15 -99 16 -94 1 -96 5 -9 17 l57 7 -99 78 -100 77 -98 2 -97 1 78 10 c42
6 77 13 77 16 0 3 -18 18 -39 34 l-39 27 -364 1 -363 1 298 43 c164 24 300 45
303 48 3 3 -3 10 -14 16 -15 8 -104 -1 -364 -39 -304 -44 -353 -53 -426 -84
-46 -18 -86 -36 -89 -40 -4 -3 106 -6 243 -7 246 -1 248 -1 159 -14 -49 -7
-201 -19 -336 -25 -188 -9 -261 -16 -305 -30 l-59 -19 148 6 c81 3 147 4 147
1 0 -13 -238 -48 -395 -58 -93 -6 -231 -20 -305 -30 -380 -53 -736 -58 -1070
-15 -77 10 -214 15 -425 16 l-310 2 150 13 c83 8 175 17 205 20 l55 7 -47 12
c-38 10 -78 10 -205 -1 -87 -8 -216 -19 -288 -24 -71 -6 -157 -15 -190 -20
-57 -9 -653 -14 -644 -6 5 6 325 52 491 72 73 8 249 18 391 21 142 3 255 9
250 13 -25 21 -108 30 -299 31 l-209 2 105 13 c58 8 125 17 150 20 l45 6 -45
21 c-25 11 -124 58 -220 105 l-175 85 -86 -12 c-47 -6 -174 -11 -280 -10
l-194 1 200 33 c110 19 216 37 235 40 l35 7 -25 13 c-21 11 -46 9 -165 -11
-77 -13 -144 -22 -150 -21 -5 2 50 16 123 32 73 15 132 31 132 34 0 3 -15 15
-33 27 l-32 21 -355 -47 c-195 -26 -497 -66 -670 -89 l-315 -41 -593 2 -594 3
349 43 c191 24 596 80 898 125 l550 80 303 6 304 6 -92 73 -91 72 -157 0
c-177 1 -183 11 -19 30 110 13 127 19 104 38 -13 11 -29 9 -397 -47 -109 -17
-183 -21 -379 -21 -134 0 -242 2 -239 5 3 3 47 10 98 16 51 6 156 21 234 35
78 13 213 29 301 35 88 5 197 13 242 15 l83 6 -97 104 -98 104 -212 0 c-136 0
-327 -9 -530 -25 -175 -14 -407 -32 -515 -41 -109 -8 -206 -14 -215 -12 -10 2
81 16 202 31 393 50 607 78 790 103 99 14 228 28 287 31 117 6 116 6 68 62
-18 21 -29 24 -88 24 l-67 -1 53 8 c29 4 55 10 57 12 3 2 -2 14 -11 26 -19 28
-39 27 -324 -4z m329 -78 c-11 -11 -717 -72 -726 -63 -7 8 186 30 412 47 248
19 321 22 314 16z m-776 -13 c-7 -2 -21 -2 -30 0 -10 3 -4 5 12 5 17 0 24 -2
18 -5z m-123 -109 c-13 -3 -287 -39 -805 -104 -88 -11 -173 -20 -190 -19 -30
1 -30 1 -5 9 29 10 483 74 640 90 234 24 409 36 360 24z m-437 -101 c-7 -2
-19 -2 -25 0 -7 3 -2 5 12 5 14 0 19 -2 13 -5z m1402 -13 c-11 -5 -83 -8 -160
-7 l-140 1 110 6 c177 10 213 10 190 0z m-560 -150 c-79 -17 -293 -39 -465
-50 -96 -6 -197 -12 -225 -15 -35 -3 -44 -2 -30 5 18 8 398 56 505 63 25 2 92
4 150 4 79 1 95 -1 65 -7z m-686 -105 c-11 -10 -211 -34 -329 -39 -161 -6 -91
8 130 28 185 16 205 17 199 11z m491 -6 c-180 -9 -329 -9 -275 1 22 4 123 7
225 7 l185 0 -135 -8z m475 -29 c-3 -5 -32 -9 -63 -8 l-57 1 60 7 c33 4 61 7
63 8 2 1 0 -2 -3 -8z m-377 -7 c-16 -2 -40 -2 -55 0 -16 2 -3 4 27 4 30 0 43
-2 28 -4z m950 0 c-21 -2 -57 -2 -80 0 -24 2 -7 4 37 4 44 0 63 -2 43 -4z
m-780 -68 c-7 -8 -758 -96 -783 -93 -11 2 140 22 335 46 195 24 362 45 370 47
27 5 83 5 78 0z m627 -211 c-36 -14 -312 -54 -370 -53 -60 1 -42 5 125 29 180
25 270 34 245 24z m-818 -130 c-16 -17 -679 -75 -693 -61 -4 3 147 24 386 52
111 13 318 19 307 9z m891 0 c-15 -15 -294 -43 -418 -43 l-135 1 155 23 c141
21 412 34 398 19z m530 0 c-15 -14 -294 -44 -408 -43 l-125 1 95 14 c52 8 127
18 165 23 80 10 281 14 273 5z m-1211 -20 c-3 -3 -12 -4 -19 -1 -8 3 -5 6 6 6
11 1 17 -2 13 -5z m-64 -11 c-7 -2 -19 -2 -25 0 -7 3 -2 5 12 5 14 0 19 -2 13
-5z m-70 -10 c-7 -2 -19 -2 -25 0 -7 3 -2 5 12 5 14 0 19 -2 13 -5z m27 -69
c-64 -15 -504 -67 -639 -75 -278 -17 -262 -6 54 37 239 33 330 41 450 41 83 1
143 -1 135 -3z m515 -5 c-200 -30 -288 -39 -440 -43 -194 -6 -192 -4 35 28
113 16 212 24 315 24 127 0 141 -2 90 -9z m420 6 c-17 -7 -248 -35 -275 -34
-34 2 194 36 245 37 22 0 36 -1 30 -3z m4420 -21 c-93 -13 -190 -23 -215 -23
l-45 0 33 14 c17 8 32 19 32 25 0 6 61 10 183 9 l182 -1 -170 -24z m-6485 -45
c-96 -16 -200 -28 -230 -27 -42 2 -8 9 140 29 260 35 307 34 90 -2z m2278 24
c-10 -2 -26 -2 -35 0 -10 3 -2 5 17 5 19 0 27 -2 18 -5z m-415 -50 c-7 -2 -21
-2 -30 0 -10 3 -4 5 12 5 17 0 24 -2 18 -5z m690 0 c-7 -2 -19 -2 -25 0 -7 3
-2 5 12 5 14 0 19 -2 13 -5z m3732 -3 c-33 -4 -78 -8 -100 -7 l-40 0 40 7 c22
4 67 7 100 7 l60 0 -60 -7z m-5815 -61 c-125 -16 -414 -34 -380 -23 50 16 293
42 395 42 l120 -1 -135 -18z m460 -5 c-76 -13 -259 -28 -228 -18 30 10 212 32
258 32 39 0 34 -2 -30 -14z m1127 -10 c-3 -3 -12 -4 -19 -1 -8 3 -5 6 6 6 11
1 17 -2 13 -5z m-44 -11 c-7 -2 -21 -2 -30 0 -10 3 -4 5 12 5 17 0 24 -2 18
-5z m-1570 -50 c-13 -2 -33 -2 -45 0 -13 2 -3 4 22 4 25 0 35 -2 23 -4z m1295
0 c-27 -2 -69 -2 -95 0 -27 2 -5 3 47 3 52 0 74 -1 48 -3z m3635 0 c-29 -2
-77 -2 -105 0 -29 2 -6 3 52 3 58 0 81 -1 53 -3z m532 -43 c-76 -14 -149 -20
-139 -10 10 9 62 16 134 17 l45 1 -40 -8z m-5830 -11 c-22 -4 -56 -8 -75 -7
l-35 0 30 8 c17 4 50 8 75 8 l45 0 -40 -9z m2082 4 c-4 -4 -228 -8 -499 -9
-292 -1 -486 1 -477 7 16 10 986 12 976 2z m901 1 c-3 -3 -160 -7 -349 -9
-212 -2 -338 0 -329 5 16 10 687 14 678 4z m1000 -1 c-26 -2 -71 -2 -100 0
-29 2 -8 3 47 3 55 0 79 -1 53 -3z m202 -49 c-111 -26 -940 -87 -958 -70 -3 3
6 6 19 7 13 0 168 15 344 34 210 21 370 33 465 33 80 0 138 -2 130 -4z m805
-4 c-50 -10 -387 -28 -640 -34 l-190 -4 165 23 c138 19 209 23 435 23 160 0
254 -4 230 -8z m1674 6 c-2 -2 -137 -22 -299 -44 -267 -36 -330 -41 -655 -52
-198 -6 -391 -13 -430 -15 -98 -6 -70 1 280 61 l310 53 399 0 c220 1 397 -1
395 -3z m234 -13 c-7 -2 -19 -2 -25 0 -7 3 -2 5 12 5 14 0 19 -2 13 -5z
m-6038 -38 c-201 -33 -222 -34 -489 -35 -154 0 -277 3 -274 6 4 3 105 18 225
34 190 24 252 28 483 28 l265 0 -210 -33z m750 29 c-5 -2 -99 -17 -207 -34
-152 -23 -231 -30 -344 -30 -81 0 -145 2 -142 5 10 10 301 45 443 54 155 9
265 12 250 5z m614 -4 c41 0 72 -2 70 -4 -2 -2 -67 -14 -144 -27 -110 -17
-196 -23 -400 -26 -143 -3 -257 -2 -254 1 3 4 89 20 190 36 160 26 202 29 324
25 77 -3 173 -5 214 -5z m1071 0 c-30 -5 -71 -8 -90 -8 -31 1 -30 2 10 8 25 4
65 7 90 7 44 0 44 0 -10 -7z m-142 -17 c-10 -2 -26 -2 -35 0 -10 3 -2 5 17 5
19 0 27 -2 18 -5z m-630 -10 c-10 -2 -26 -2 -35 0 -10 3 -2 5 17 5 19 0 27 -2
18 -5z m550 0 c-10 -2 -26 -2 -35 0 -10 3 -2 5 17 5 19 0 27 -2 18 -5z m-658
-14 c-25 -4 -61 -7 -80 -7 -32 1 -31 2 10 8 25 4 61 7 80 7 31 0 30 0 -10 -8z
m578 4 c-10 -2 -26 -2 -35 0 -10 3 -2 5 17 5 19 0 27 -2 18 -5z m1992 -19
c-74 -13 -189 -26 -255 -28 l-120 -5 70 15 c81 17 305 42 385 42 44 0 28 -5
-80 -24z m-2072 9 c-10 -2 -26 -2 -35 0 -10 3 -2 5 17 5 19 0 27 -2 18 -5z
m-2258 -98 c-41 -8 -136 -13 -210 -13 -134 0 -135 0 -75 13 33 7 128 13 210
13 l150 0 -75 -13z m650 -1 c-53 -8 -160 -13 -285 -12 -192 1 -197 1 -130 13
41 8 158 13 285 13 l215 0 -85 -14z m2500 1 c-54 -10 -179 -13 -440 -13 l-365
1 210 12 c116 6 314 12 440 12 221 1 227 0 155 -12z m595 5 c-27 -5 -68 -8
-90 -8 -38 0 -39 1 -10 8 17 4 57 8 90 7 l60 0 -50 -7z m560 -1 c-22 -4 -53
-8 -70 -7 l-30 0 30 8 c17 4 48 8 70 8 l40 0 -40 -9z m508 4 c-45 -2 -122 -2
-170 0 -48 1 -11 3 82 3 94 0 133 -2 88 -3z m-1400 -10 c-7 -2 -21 -2 -30 0
-10 3 -4 5 12 5 17 0 24 -2 18 -5z m-60 -10 c-7 -2 -19 -2 -25 0 -7 3 -2 5 12
5 14 0 19 -2 13 -5z m1102 -33 c-80 -10 -285 -10 -230 0 22 4 96 7 165 7 102
0 114 -1 65 -7z m-766 -5 c-11 -10 -283 -47 -379 -50 -127 -5 -107 0 115 30
163 21 273 30 264 20z m261 -5 c-19 -5 -64 -11 -100 -14 l-65 -5 60 13 c33 7
78 14 100 14 l40 0 -35 -8z m-2545 -11 c-49 -4 -121 -7 -160 -7 -59 1 -64 2
-30 8 22 4 94 7 160 7 l120 0 -90 -8z m1245 -15 c-130 -22 -155 -23 -665 -22
-291 0 -519 3 -505 5 14 3 102 13 195 23 137 14 262 17 640 17 l470 1 -135
-24z m425 21 c-22 -9 -254 -45 -281 -44 -43 1 -19 8 102 28 97 17 206 26 179
16z m2053 -10 c-14 -15 -541 -65 -668 -64 -186 1 35 32 385 54 244 15 290 17
283 10z m710 0 c-5 -6 -163 -35 -187 -35 -29 0 -2 11 60 25 65 14 137 19 127
10z m821 -10 c46 -8 86 -16 88 -18 6 -7 -135 -27 -260 -37 -67 -6 -178 -17
-247 -24 -77 -9 -133 -10 -148 -5 -13 5 -105 9 -205 10 -100 0 -176 3 -169 6
7 3 131 22 275 43 301 43 516 52 666 25z m-1171 -20 c-18 -19 -211 -45 -316
-44 l-117 2 75 9 c59 7 254 27 349 37 8 0 12 -1 9 -4z m-3909 -59 c-2 -2 -238
-9 -524 -15 -286 -6 -566 -13 -623 -15 -57 -2 -101 -1 -98 2 24 23 176 30 695
31 305 0 552 -1 550 -3z m-1494 -16 c-60 -11 -169 -21 -163 -14 9 9 98 22 153
22 l50 0 -40 -8z m3072 -7 c-20 -2 -52 -2 -70 0 -17 2 0 4 38 4 39 0 53 -2 32
-4z m341 0 c-15 -2 -42 -2 -60 0 -18 2 -6 4 27 4 33 0 48 -2 33 -4z m1466 -4
c133 -2 38 -15 -194 -28 -221 -12 -266 -13 -259 -7 2 2 56 11 119 20 63 8 126
18 140 20 14 2 45 2 69 0 24 -2 80 -4 125 -5z m911 -10 c-16 -4 -185 -24 -375
-44 -190 -20 -416 -45 -504 -56 -164 -21 -222 -20 -94 1 98 16 390 77 453 94
37 10 117 14 300 14 154 0 239 -3 220 -9z m528 -6 c-7 -2 -19 -2 -25 0 -7 3
-2 5 12 5 14 0 19 -2 13 -5z m209 -4 c-37 -14 -414 -89 -447 -88 -45 1 -28 5
215 53 230 45 273 52 232 35z m-2632 -10 c-25 -4 -85 -7 -135 -6 l-90 1 70 6
c39 4 99 7 135 7 63 0 63 0 20 -8z m2300 -10 c-99 -21 -110 -22 -110 -10 0 5
30 13 68 18 110 17 133 12 42 -8z m-150 -19 c0 -5 -2 -10 -4 -10 -2 0 -47 -9
-99 -20 -58 -12 -154 -21 -244 -24 -170 -5 -167 -4 102 33 233 33 245 34 245
21z m-3590 -16 c-41 -7 -91 -12 -110 -12 -19 0 1 6 45 13 107 16 160 16 65 -1z
m545 -5 c-16 -5 -93 -11 -170 -14 -77 -3 -173 -8 -214 -10 -102 -7 -84 3 35
19 114 16 397 20 349 5z m1570 6 c-5 -2 -116 -22 -246 -45 l-235 -40 -395 1
-394 1 140 23 c94 16 223 27 390 35 138 6 331 15 430 19 203 9 325 11 310 6z
m928 -12 c-7 -2 -19 -2 -25 0 -7 3 -2 5 12 5 14 0 19 -2 13 -5z m-3205 -10
c-10 -2 -26 -2 -35 0 -10 3 -2 5 17 5 19 0 27 -2 18 -5z m3132 1 c-56 -14
-477 -64 -530 -62 -79 1 -75 2 225 37 210 25 351 36 305 25z m-3207 -11 c-7
-2 -21 -2 -30 0 -10 3 -4 5 12 5 17 0 24 -2 18 -5z m947 -29 c-36 -8 -117 -17
-180 -20 -95 -4 -112 -3 -95 8 21 13 140 25 265 25 l75 1 -65 -14z m-354 -34
c0 -24 -2 -24 -136 -44 -267 -40 -384 -52 -725 -76 -188 -13 -402 -35 -682
-71 -209 -26 -259 -29 -510 -28 -153 0 -273 2 -268 5 6 2 271 42 590 89 509
75 607 86 800 95 287 13 595 30 720 39 186 15 211 14 211 -9z m954 -36 c-8 -2
-143 -17 -300 -34 -243 -26 -322 -30 -540 -29 -140 0 -250 3 -245 5 6 2 83 17
170 33 158 28 164 29 545 29 212 0 378 -2 370 -4z m1309 2 c-2 -2 -71 -6 -154
-9 -82 -2 -127 -2 -100 3 52 7 261 13 254 6z m777 -6 c-78 -24 -742 -106 -784
-98 -9 2 107 19 258 37 151 18 322 42 380 51 58 10 121 18 140 18 l35 0 -29
-8z m279 -10 c-139 -21 -175 -23 -175 -11 0 15 91 29 195 29 l100 0 -120 -18z
m865 11 c-8 -5 -78 -15 -155 -21 -77 -7 -216 -25 -310 -41 -542 -93 -742 -121
-749 -104 -2 7 33 29 82 53 85 41 95 43 362 81 258 36 291 39 530 39 151 1
249 -2 240 -7z m-5691 -15 c-2 -2 -116 -21 -254 -41 -137 -20 -383 -56 -545
-80 -213 -31 -339 -45 -455 -48 -88 -3 -149 -3 -135 -1 36 7 1340 172 1369
173 13 1 22 -1 20 -3z m4486 -93 c-21 -12 -59 -18 -130 -19 -55 -2 -91 0 -80
3 26 7 183 30 215 31 24 1 24 1 -5 -15z m-825 -9 c-84 -12 -145 -16 -125 -8
18 8 129 22 170 21 24 0 6 -5 -45 -13z m-2691 2 c-2 -2 -40 -6 -84 -9 -49 -3
-67 -2 -45 2 36 9 137 14 129 7z m1916 -5 l120 -6 -120 -8 c-66 -4 -250 -12
-410 -17 -159 -6 -400 -15 -535 -20 -240 -10 -370 -11 -340 -4 8 2 96 11 195
20 99 9 239 22 310 29 136 13 576 17 780 6z m383 -46 c-2 -3 -85 -16 -184 -30
-98 -14 -235 -34 -304 -44 -179 -27 -224 -32 -218 -25 5 4 443 72 623 97 47 6
89 7 83 2z m1007 -4 c-22 -20 -192 -55 -355 -73 -164 -19 -733 -38 -720 -25 3
3 100 18 215 33 116 14 287 37 380 49 172 23 499 34 480 16z m150 -11 c-3 -5
-21 -10 -38 -9 -27 0 -29 2 -12 9 28 12 57 12 50 0z m1202 4 c-3 -3 -12 -4
-19 -1 -8 3 -5 6 6 6 11 1 17 -2 13 -5z m-297 -50 c-181 -31 -294 -45 -390
-48 -163 -6 -144 -2 280 53 387 51 425 49 110 -5z m-2935 25 c-187 -24 -1392
-107 -1660 -113 l-220 -5 95 19 c269 54 332 59 1190 90 162 6 322 12 355 13
33 2 114 3 180 4 101 0 111 -1 60 -8z m-2777 -66 c-10 -2 -26 -2 -35 0 -10 3
-2 5 17 5 19 0 27 -2 18 -5z m-85 -10 c-7 -2 -21 -2 -30 0 -10 3 -4 5 12 5 17
0 24 -2 18 -5z m455 -30 c-10 -2 -26 -2 -35 0 -10 3 -2 5 17 5 19 0 27 -2 18
-5z m-208 -28 c-85 -13 -213 -25 -285 -28 l-130 -6 165 19 c91 11 197 23 235
28 39 5 93 9 120 9 29 0 -16 -9 -105 -22z m527 19 c-3 -3 -12 -4 -19 -1 -8 3
-5 6 6 6 11 1 17 -2 13 -5z m-54 -11 c-7 -2 -21 -2 -30 0 -10 3 -4 5 12 5 17
0 24 -2 18 -5z m1562 -9 c-160 -27 -437 -65 -441 -61 -3 3 35 10 83 17 48 7
153 23 233 35 80 13 159 23 175 23 17 0 -6 -7 -50 -14z m1020 0 c-244 -15
-325 -14 -195 2 47 6 159 11 250 11 l165 0 -220 -13z m2823 11 c-7 -7 -446
-47 -467 -43 -9 2 67 13 169 25 184 21 308 28 298 18z m-4148 -11 c-8 -2 -170
-27 -360 -54 -412 -60 -607 -72 -1095 -68 l-330 3 145 23 c180 28 1021 87
1345 95 185 5 311 5 295 1z m3440 -20 c-102 -13 -194 -23 -205 -21 -33 4 265
45 330 45 39 0 -4 -9 -125 -24z m-1424 7 c-3 -4 -26 -11 -51 -14 -25 -4 -57
-9 -72 -12 -23 -5 -25 -4 -10 5 30 19 143 37 133 21z m268 -21 c-235 -33 -287
-39 -279 -32 11 11 348 60 410 60 42 0 3 -8 -131 -28z m861 24 c-29 -11 -375
-55 -470 -60 -158 -8 -114 10 75 30 301 32 423 42 395 30z m-2458 -10 c-3 -3
-12 -4 -19 -1 -8 3 -5 6 6 6 11 1 17 -2 13 -5z m-84 -11 c-7 -2 -19 -2 -25 0
-7 3 -2 5 12 5 14 0 19 -2 13 -5z m966 3 c-2 -2 -63 -13 -135 -25 -114 -18
-169 -21 -440 -20 l-309 2 230 13 c127 7 300 17 385 22 186 11 275 13 269 8z
m241 -1 c0 -2 -14 -12 -32 -21 -32 -17 -210 -34 -195 -19 4 5 51 16 105 26
112 19 122 21 122 14z m1827 -11 c-3 -3 -12 -4 -19 -1 -8 3 -5 6 6 6 11 1 17
-2 13 -5z m-5597 -74 c-14 -4 -52 -8 -85 -7 l-60 0 65 7 c95 10 110 10 80 0z
m3015 0 c-16 -4 -158 -7 -315 -7 -214 1 -251 3 -150 7 201 9 499 9 465 0z
m2347 3 c-62 -2 -161 -2 -220 0 -59 1 -8 3 113 3 121 0 169 -2 107 -3z m513
-31 c-6 -5 -107 -21 -225 -36 -118 -15 -399 -51 -625 -81 -575 -75 -704 -86
-1050 -90 -277 -3 -349 3 -215 19 30 3 123 15 205 25 83 11 294 32 470 46 194
16 351 33 400 45 44 11 107 22 140 25 285 26 473 38 665 45 124 3 229 7 235 8
6 1 6 -1 0 -6z m-3470 -23 c-225 -28 -847 -59 -1135 -58 -407 2 -367 8 350 58
159 11 877 11 785 0z m1605 1 c-14 -4 -38 -8 -55 -8 -29 1 -29 1 5 8 50 11 83
11 50 0z m875 4 c-43 -8 -499 -43 -503 -40 -2 3 18 8 45 12 26 3 82 12 123 19
41 7 138 12 215 12 77 0 131 -1 120 -3z m-1726 -8 c-8 -8 -341 -57 -794 -117
-431 -57 -475 -61 -695 -64 -129 -2 -226 1 -215 5 11 5 310 38 665 75 637 66
876 91 935 98 45 6 109 8 104 3z m-2500 -20 c-15 -15 -419 -36 -664 -34 l-280
1 190 9 c105 4 269 12 365 17 202 9 395 13 389 7z m3259 -41 c-15 -15 -831
-118 -895 -113 -52 4 700 104 881 117 11 0 17 -1 14 -4z m1915 -12 c-7 -2 -21
-2 -30 0 -10 3 -4 5 12 5 17 0 24 -2 18 -5z m-83 -10 c-14 -2 -124 -17 -245
-34 -121 -16 -266 -36 -323 -44 -56 -8 -135 -15 -175 -14 -64 1 -51 4 123 30
214 32 529 67 600 66 25 0 34 -1 20 -4z m-4081 -27 c-2 -3 -69 -11 -149 -20
-198 -21 -1370 -63 -1355 -48 3 3 74 16 157 28 142 22 187 24 608 25 250 1
502 5 560 9 145 9 184 11 179 6z m1496 -1 c-20 -8 -477 -66 -488 -62 -12 4
221 42 343 56 79 9 162 12 145 6z m-2976 -20 c-3 -2 -63 -13 -134 -24 -139
-21 -385 -38 -373 -26 4 4 101 18 215 30 210 23 300 29 292 20z m3456 -96
c-169 -15 -596 -41 -601 -36 -2 2 64 13 148 24 110 15 207 21 348 20 167 0
182 -1 105 -8z m665 0 c-114 -22 -685 -101 -860 -119 -107 -11 -260 -27 -340
-35 -294 -32 -559 -45 -891 -45 -185 0 -394 -5 -466 -11 -204 -17 -206 -6 -3
20 123 15 277 26 460 31 326 11 442 16 570 30 164 16 825 79 1060 100 124 11
261 24 305 29 44 5 109 8 145 8 64 1 65 1 20 -8z m375 -10 c-212 -43 -405 -70
-634 -89 -133 -12 -250 -20 -259 -18 -8 2 76 16 189 32 112 16 299 44 414 62
116 17 248 32 295 32 l85 0 -90 -19z m660 10 c-22 -5 -101 -11 -175 -13 -131
-5 -133 -5 -75 8 33 8 112 14 175 14 88 0 106 -2 75 -9z m-3472 -6 c-7 -2 -21
-2 -30 0 -10 3 -4 5 12 5 17 0 24 -2 18 -5z m3687 -3 c-14 -4 -38 -8 -55 -8
-29 1 -29 1 5 8 50 11 83 11 50 0z m-3762 -7 c-10 -2 -26 -2 -35 0 -10 3 -2 5
17 5 19 0 27 -2 18 -5z m-70 -10 c-10 -2 -26 -2 -35 0 -10 3 -2 5 17 5 19 0
27 -2 18 -5z m-70 -10 c-10 -2 -26 -2 -35 0 -10 3 -2 5 17 5 19 0 27 -2 18 -5z
m-168 -23 c-63 -10 -128 -18 -145 -18 -40 1 180 36 225 36 19 0 -17 -8 -80
-18z m387 14 c-3 -3 -12 -4 -19 -1 -8 3 -5 6 6 6 11 1 17 -2 13 -5z m-107 -23
c-8 -4 -64 -14 -125 -20 -239 -25 -259 -22 -55 9 128 20 204 24 180 11z m3509
4 c-7 -6 -224 -39 -601 -90 -307 -41 -357 -45 -540 -45 -111 0 -199 2 -197 4
8 9 464 66 724 91 143 14 296 29 340 34 86 9 281 14 274 6z m-4044 -30 c-44
-8 -91 -13 -105 -13 -36 1 109 26 150 26 19 0 -1 -6 -45 -13z m-142 -22 c-7
-2 -21 -2 -30 0 -10 3 -4 5 12 5 17 0 24 -2 18 -5z m-66 -9 c-3 -3 -12 -4 -19
-1 -8 3 -5 6 6 6 11 1 17 -2 13 -5z m2608 -55 c-79 -12 -173 -17 -275 -17
l-155 1 110 8 c410 32 489 34 320 8z m1478 -6 c-7 -2 -19 -2 -25 0 -7 3 -2 5
12 5 14 0 19 -2 13 -5z m-3968 -8 c-16 -6 -300 -34 -410 -40 -163 -10 -88 11
90 25 88 6 165 13 170 15 14 5 162 4 150 0z m2040 -45 c-30 -13 -712 -108
-859 -120 -71 -5 -246 -10 -390 -9 l-261 1 150 28 c134 26 716 94 870 103 136
7 509 5 490 -3z m830 0 c-11 -5 -85 -18 -165 -29 -80 -11 -267 -38 -417 -61
-256 -38 -284 -40 -485 -39 l-213 1 207 19 c114 10 317 37 450 59 134 23 268
45 298 50 77 10 350 11 325 0z m-2800 -230 c-27 -5 -70 -8 -95 -8 -40 0 -42 1
-15 8 17 4 59 8 95 7 l65 0 -50 -7z m2480 -11 c-89 -13 -182 -18 -359 -18
-132 -1 -237 2 -233 5 17 18 216 32 452 32 l260 -1 -120 -18z m550 6 c-175
-18 -351 -28 -343 -20 13 14 210 33 338 32 l125 0 -120 -12z m-930 -60 c-27
-11 -312 -46 -480 -59 -321 -26 -814 -58 -838 -54 -12 2 160 28 383 59 l405
57 270 0 c149 0 266 -1 260 -3z m244 -39 c-5 -4 -196 -29 -394 -51 -77 -9
-223 -27 -325 -41 -434 -59 -557 -74 -590 -73 -52 1 -30 6 125 28 77 11 250
37 385 57 293 43 816 95 799 80z"/>
<path d="M1820 4200 c-146 -27 -290 -52 -320 -56 -92 -11 -92 -11 -68 -66 19
-44 23 -48 57 -49 l36 -1 -27 -11 c-29 -11 -34 -23 -19 -46 8 -12 19 -12 67
-3 69 14 97 15 90 3 -3 -5 -29 -12 -58 -15 -77 -10 -87 -18 -66 -53 13 -21 26
-29 54 -31 41 -4 84 14 84 34 0 6 8 14 18 16 9 3 86 59 170 124 l153 119 -53
5 -53 5 78 13 c54 10 86 21 105 37 15 14 25 24 22 24 -3 -1 -124 -23 -270 -49z
m-85 -130 c-28 -12 -37 -12 -30 0 3 6 16 10 28 9 21 0 21 -1 2 -9z"/>
<path d="M8610 3376 c-47 -12 -103 -32 -125 -43 l-40 -22 195 0 195 0 -24 19
c-17 15 -39 20 -85 21 l-61 1 43 10 c36 8 41 12 31 24 -15 18 -26 17 -129 -10z"/>
<path d="M8870 3307 c0 -2 17 -18 38 -33 l37 -29 740 -6 c407 -4 765 -10 795
-15 35 -6 -223 -11 -715 -14 l-770 -5 114 -87 113 -88 108 0 c93 0 387 -34
399 -46 2 -2 -96 -4 -219 -4 l-223 0 44 -35 c39 -30 51 -35 101 -35 70 0 87
-18 21 -22 l-47 -3 74 -57 75 -57 340 -4 c195 -3 355 -9 375 -15 26 -8 -60
-10 -323 -9 l-358 2 33 -27 c29 -23 44 -27 133 -32 193 -12 346 -29 337 -38
-14 -14 -210 -21 -292 -10 -41 5 -76 8 -78 7 -1 -1 30 -28 71 -59 l73 -56 315
0 c191 0 381 -6 484 -15 276 -24 254 -28 324 57 33 40 58 74 57 76 -2 1 -108
9 -236 17 -128 7 -235 16 -238 19 -3 3 111 6 254 7 l259 0 73 102 74 102 -69
6 -68 5 72 2 c67 2 73 4 92 31 12 16 21 32 21 35 0 3 -263 6 -584 6 -517 0
-607 2 -778 20 -106 11 -197 22 -203 25 -5 2 352 4 793 3 779 0 845 2 819 29
-4 3 -442 8 -975 11 -532 2 -980 8 -997 12 -17 5 394 8 960 7 545 -2 998 -6
1007 -11 14 -6 25 4 53 48 60 94 82 86 -221 87 -155 0 -316 6 -379 13 -106 13
-95 14 276 15 380 1 409 3 409 33 0 4 -282 8 -627 9 -354 0 -661 5 -703 10
-75 10 -1260 25 -1260 16z m1725 -407 c26 -11 -836 -12 -890 -1 -23 5 148 9
415 9 250 0 464 -3 475 -8z m430 -142 c-63 -12 -460 -12 -540 0 -42 7 35 9
265 10 233 0 311 -3 275 -10z m-402 -125 c-7 -2 -19 -2 -25 0 -7 3 -2 5 12 5
14 0 19 -2 13 -5z m-665 -60 c-16 -2 -40 -2 -55 0 -16 2 -3 4 27 4 30 0 43 -2
28 -4z"/>
<path d="M9985 2435 l30 -24 424 2 424 2 15 23 14 22 -468 0 -469 0 30 -25z"/>
<path d="M10097 2350 c34 -25 50 -28 147 -35 60 -4 130 -10 155 -14 l46 -8
-66 -7 c-36 -4 -93 -6 -127 -4 -34 1 -62 1 -62 -1 0 -2 8 -10 18 -17 13 -10
73 -13 258 -14 l241 0 54 57 c29 31 49 58 44 59 -6 1 -176 5 -378 7 l-368 5
38 -28z"/>
<path d="M10260 2226 c0 -1 27 -24 59 -50 46 -36 68 -46 98 -47 21 0 56 -4 78
-8 38 -8 36 -9 -25 -10 l-65 -1 25 -20 c42 -33 90 -26 133 18 21 21 34 41 31
45 -4 4 -1 7 7 7 8 0 30 16 49 35 l34 35 -212 0 c-117 0 -212 -2 -212 -4z"/>
<path d="M10485 2050 c3 -5 8 -10 11 -10 2 0 4 5 4 10 0 6 -5 10 -11 10 -5 0
-7 -4 -4 -10z"/>
</g>
</svg>
